<?xml version="1.0" encoding="UTF-8" standalone="no"?>
<!-- Created with Inkscape (http://www.inkscape.org/) -->

<svg
   xmlns:dc="http://purl.org/dc/elements/1.1/"
   xmlns:cc="http://creativecommons.org/ns#"
   xmlns:rdf="http://www.w3.org/1999/02/22-rdf-syntax-ns#"
   xmlns:svg="http://www.w3.org/2000/svg"
   xmlns="http://www.w3.org/2000/svg"
   xmlns:sodipodi="http://sodipodi.sourceforge.net/DTD/sodipodi-0.dtd"
   xmlns:inkscape="http://www.inkscape.org/namespaces/inkscape"
   id="svg2985"
   version="1.1"
   inkscape:version="0.48.4 r9939"
   width="362.61719"
   height="119.64844"
   xml:space="preserve"
   sodipodi:docname="ean128test.svg"><metadata
     id="metadata2991"><rdf:RDF><cc:Work
         rdf:about=""><dc:format>image/svg+xml</dc:format><dc:type
           rdf:resource="http://purl.org/dc/dcmitype/StillImage" /><dc:title /></cc:Work></rdf:RDF></metadata><defs
     id="defs2989" /><sodipodi:namedview
     pagecolor="#ffffff"
     bordercolor="#666666"
     borderopacity="1"
     objecttolerance="10"
     gridtolerance="10"
     guidetolerance="10"
     inkscape:pageopacity="0"
     inkscape:pageshadow="2"
     inkscape:window-width="1031"
     inkscape:window-height="810"
     id="namedview2987"
     showgrid="false"
     fit-margin-top="0"
     fit-margin-left="0"
     fit-margin-right="0"
     fit-margin-bottom="0"
     inkscape:zoom="1.1840026"
     inkscape:cx="165.25666"
     inkscape:cy="103.99878"
     inkscape:window-x="0"
     inkscape:window-y="0"
     inkscape:window-maximized="0"
     inkscape:current-layer="g2993" /><g
     id="g2993"
     inkscape:groupmode="layer"
     inkscape:label="ean128test"
     transform="matrix(1.25,0,0,-1.25,-57.851562,975.11719)"><g
   id="g3897"
   transform="translate(-15.495593,0)"><path
     id="path3099"
     style="fill:#000000;fill-opacity:1;fill-rule:nonzero;stroke:none"
     d="m 320.41,771.02 2.82,0 0,-56.69 -2.82,0 0,56.69 z"
     inkscape:connector-curvature="0" /><path
     id="path3101"
     style="fill:#000000;fill-opacity:1;fill-rule:nonzero;stroke:none"
     d="m 327.47,771.02 4.23,0 0,-56.69 -4.23,0 0,56.69 z"
     inkscape:connector-curvature="0" /><path
     id="path3103"
     style="fill:#000000;fill-opacity:1;fill-rule:nonzero;stroke:none"
     d="m 333.11,771.02 1.41,0 0,-56.69 -1.41,0 0,56.69 z"
     inkscape:connector-curvature="0" /><path
     id="path3105"
     style="fill:#000000;fill-opacity:1;fill-rule:nonzero;stroke:none"
     d="m 335.93,771.02 2.82,0 0,-56.69 -2.82,0 0,56.69 z"
     inkscape:connector-curvature="0" /></g><path
   inkscape:connector-curvature="0"
   d="m 82.051709,771.01862 4.23,0 0,-56.69 -4.23,0 0,56.69 z"
   style="fill:#000000;fill-opacity:1;fill-rule:nonzero;stroke:none"
   id="path3001-5" /><path
   d="m 56.69,771.02 2.82,0 0,-56.69 -2.82,0 0,56.69 z"
   style="fill:#000000;fill-opacity:1;fill-rule:nonzero;stroke:none"
   id="path2997"
   inkscape:connector-curvature="0" /><path
   d="m 60.92,771.02 1.41,0 0,-56.69 -1.41,0 0,56.69 z"
   style="fill:#000000;fill-opacity:1;fill-rule:nonzero;stroke:none"
   id="path2999"
   inkscape:connector-curvature="0" /><path
   d="m 65.15,771.02 4.23,0 0,-56.69 -4.23,0 0,56.69 z"
   style="fill:#000000;fill-opacity:1;fill-rule:nonzero;stroke:none"
   id="path3001"
   inkscape:connector-curvature="0" /><path
   d="m 72.21,771.02 5.64,0 0,-56.69 -5.64,0 0,56.69 z"
   style="fill:#000000;fill-opacity:1;fill-rule:nonzero;stroke:none"
   id="path3003"
   inkscape:connector-curvature="0" /><path
   d="m 79.26,771.02 1.41,0 0,-56.69 -1.41,0 0,56.69 z"
   style="fill:#000000;fill-opacity:1;fill-rule:nonzero;stroke:none"
   id="path3005"
   inkscape:connector-curvature="0" /><path
   d="m 87.72,771.02 2.82,0 0,-56.69 -2.82,0 0,56.69 z"
   style="fill:#000000;fill-opacity:1;fill-rule:nonzero;stroke:none"
   id="path3009"
   inkscape:connector-curvature="0" /><path
   d="m 93.36,771.02 2.82,0 0,-56.69 -2.82,0 0,56.69 z"
   style="fill:#000000;fill-opacity:1;fill-rule:nonzero;stroke:none"
   id="path3011"
   inkscape:connector-curvature="0" /><path
   d="m 97.59,771.02 2.82,0 0,-56.69 -2.82,0 0,56.69 z"
   style="fill:#000000;fill-opacity:1;fill-rule:nonzero;stroke:none"
   id="path3013"
   inkscape:connector-curvature="0" /><path
   d="m 103.23,771.02 1.41,0 0,-56.69 -1.41,0 0,56.69 z"
   style="fill:#000000;fill-opacity:1;fill-rule:nonzero;stroke:none"
   id="path3015"
   inkscape:connector-curvature="0" /><path
   d="m 106.05,771.02 5.64,0 0,-56.69 -5.64,0 0,56.69 z"
   style="fill:#000000;fill-opacity:1;fill-rule:nonzero;stroke:none"
   id="path3017"
   inkscape:connector-curvature="0" /><path
   d="m 113.1,771.02 1.41,0 0,-56.69 -1.41,0 0,56.69 z"
   style="fill:#000000;fill-opacity:1;fill-rule:nonzero;stroke:none"
   id="path3019"
   inkscape:connector-curvature="0" /><path
   d="m 118.74,771.02 2.82,0 0,-56.69 -2.82,0 0,56.69 z"
   style="fill:#000000;fill-opacity:1;fill-rule:nonzero;stroke:none"
   id="path3021"
   inkscape:connector-curvature="0" /><path
   d="m 124.39,771.02 2.82,0 0,-56.69 -2.82,0 0,56.69 z"
   style="fill:#000000;fill-opacity:1;fill-rule:nonzero;stroke:none"
   id="path3023"
   inkscape:connector-curvature="0" /><path
   d="m 128.62,771.02 2.82,0 0,-56.69 -2.82,0 0,56.69 z"
   style="fill:#000000;fill-opacity:1;fill-rule:nonzero;stroke:none"
   id="path3025"
   inkscape:connector-curvature="0" /><path
   d="m 134.26,771.02 4.23,0 0,-56.69 -4.23,0 0,56.69 z"
   style="fill:#000000;fill-opacity:1;fill-rule:nonzero;stroke:none"
   id="path3027"
   inkscape:connector-curvature="0" /><path
   d="m 139.9,771.02 2.82,0 0,-56.69 -2.82,0 0,56.69 z"
   style="fill:#000000;fill-opacity:1;fill-rule:nonzero;stroke:none"
   id="path3029"
   inkscape:connector-curvature="0" /><path
   d="m 144.13,771.02 4.23,0 0,-56.69 -4.23,0 0,56.69 z"
   style="fill:#000000;fill-opacity:1;fill-rule:nonzero;stroke:none"
   id="path3031"
   inkscape:connector-curvature="0" /><path
   d="m 149.77,771.02 1.41,0 0,-56.69 -1.41,0 0,56.69 z"
   style="fill:#000000;fill-opacity:1;fill-rule:nonzero;stroke:none"
   id="path3033"
   inkscape:connector-curvature="0" /><path
   d="m 152.59,771.02 4.23,0 0,-56.69 -4.23,0 0,56.69 z"
   style="fill:#000000;fill-opacity:1;fill-rule:nonzero;stroke:none"
   id="path3035"
   inkscape:connector-curvature="0" /><path
   d="m 158.23,771.02 2.82,0 0,-56.69 -2.82,0 0,56.69 z"
   style="fill:#000000;fill-opacity:1;fill-rule:nonzero;stroke:none"
   id="path3037"
   inkscape:connector-curvature="0" /><path
   d="m 165.28,771.02 1.41,0 0,-56.69 -1.41,0 0,56.69 z"
   style="fill:#000000;fill-opacity:1;fill-rule:nonzero;stroke:none"
   id="path3039"
   inkscape:connector-curvature="0" /><path
   d="m 172.34,771.02 1.41,0 0,-56.69 -1.41,0 0,56.69 z"
   style="fill:#000000;fill-opacity:1;fill-rule:nonzero;stroke:none"
   id="path3041"
   inkscape:connector-curvature="0" /><path
   d="m 175.16,771.02 2.82,0 0,-56.69 -2.82,0 0,56.69 z"
   style="fill:#000000;fill-opacity:1;fill-rule:nonzero;stroke:none"
   id="path3043"
   inkscape:connector-curvature="0" /><path
   d="m 180.8,771.02 2.82,0 0,-56.69 -2.82,0 0,56.69 z"
   style="fill:#000000;fill-opacity:1;fill-rule:nonzero;stroke:none"
   id="path3045"
   inkscape:connector-curvature="0" /><path
   d="m 185.03,771.02 2.82,0 0,-56.69 -2.82,0 0,56.69 z"
   style="fill:#000000;fill-opacity:1;fill-rule:nonzero;stroke:none"
   id="path3047"
   inkscape:connector-curvature="0" /><path
   d="m 189.26,771.02 5.64,0 0,-56.69 -5.64,0 0,56.69 z"
   style="fill:#000000;fill-opacity:1;fill-rule:nonzero;stroke:none"
   id="path3049"
   inkscape:connector-curvature="0" /><path
   d="m 196.31,771.02 1.41,0 0,-56.69 -1.41,0 0,56.69 z"
   style="fill:#000000;fill-opacity:1;fill-rule:nonzero;stroke:none"
   id="path3051"
   inkscape:connector-curvature="0" /><path
   d="m 200.54,771.02 1.41,0 0,-56.69 -1.41,0 0,56.69 z"
   style="fill:#000000;fill-opacity:1;fill-rule:nonzero;stroke:none"
   id="path3053"
   inkscape:connector-curvature="0" /><path
   d="m 204.77,771.02 2.82,0 0,-56.69 -2.82,0 0,56.69 z"
   style="fill:#000000;fill-opacity:1;fill-rule:nonzero;stroke:none"
   id="path3055"
   inkscape:connector-curvature="0" /><path
   d="m 211.82,771.02 2.82,0 0,-56.69 -2.82,0 0,56.69 z"
   style="fill:#000000;fill-opacity:1;fill-rule:nonzero;stroke:none"
   id="path3057"
   inkscape:connector-curvature="0" /><path
   d="m 216.05,771.02 2.82,0 0,-56.69 -2.82,0 0,56.69 z"
   style="fill:#000000;fill-opacity:1;fill-rule:nonzero;stroke:none"
   id="path3059"
   inkscape:connector-curvature="0" /><path
   d="m 223.1,771.02 2.82,0 0,-56.69 -2.82,0 0,56.69 z"
   style="fill:#000000;fill-opacity:1;fill-rule:nonzero;stroke:none"
   id="path3061"
   inkscape:connector-curvature="0" /><path
   d="m 227.34,771.02 1.41,0 0,-56.69 -1.41,0 0,56.69 z"
   style="fill:#000000;fill-opacity:1;fill-rule:nonzero;stroke:none"
   id="path3063"
   inkscape:connector-curvature="0" /><path
   d="m 231.57,771.02 1.41,0 0,-56.69 -1.41,0 0,56.69 z"
   style="fill:#000000;fill-opacity:1;fill-rule:nonzero;stroke:none"
   id="path3065"
   inkscape:connector-curvature="0" /><path
   d="m 235.8,771.02 2.82,0 0,-56.69 -2.82,0 0,56.69 z"
   style="fill:#000000;fill-opacity:1;fill-rule:nonzero;stroke:none"
   id="path3067"
   inkscape:connector-curvature="0" /><path
   d="m 242.85,771.02 2.82,0 0,-56.69 -2.82,0 0,56.69 z"
   style="fill:#000000;fill-opacity:1;fill-rule:nonzero;stroke:none"
   id="path3069"
   inkscape:connector-curvature="0" /><path
   d="m 247.08,771.02 2.82,0 0,-56.69 -2.82,0 0,56.69 z"
   style="fill:#000000;fill-opacity:1;fill-rule:nonzero;stroke:none"
   id="path3071"
   inkscape:connector-curvature="0" /><path
   d="m 252.72,771.02 2.82,0 0,-56.69 -2.82,0 0,56.69 z"
   style="fill:#000000;fill-opacity:1;fill-rule:nonzero;stroke:none"
   id="path3073"
   inkscape:connector-curvature="0" /><path
   d="m 258.36,771.02 2.82,0 0,-56.69 -2.82,0 0,56.69 z"
   style="fill:#000000;fill-opacity:1;fill-rule:nonzero;stroke:none"
   id="path3075"
   inkscape:connector-curvature="0" /><path
   d="m 264,771.02 2.82,0 0,-56.69 -2.82,0 0,56.69 z"
   style="fill:#000000;fill-opacity:1;fill-rule:nonzero;stroke:none"
   id="path3077"
   inkscape:connector-curvature="0" /><path
   d="m 268.23,771.02 2.82,0 0,-56.69 -2.82,0 0,56.69 z"
   style="fill:#000000;fill-opacity:1;fill-rule:nonzero;stroke:none"
   id="path3079"
   inkscape:connector-curvature="0" /><path
   d="m 273.87,771.02 4.23,0 0,-56.69 -4.23,0 0,56.69 z"
   style="fill:#000000;fill-opacity:1;fill-rule:nonzero;stroke:none"
   id="path3081"
   inkscape:connector-curvature="0" /><path
   d="m 279.52,771.02 2.82,0 0,-56.69 -2.82,0 0,56.69 z"
   style="fill:#000000;fill-opacity:1;fill-rule:nonzero;stroke:none"
   id="path3083"
   inkscape:connector-curvature="0" /><path
   d="m 283.75,771.02 4.23,0 0,-56.69 -4.23,0 0,56.69 z"
   style="fill:#000000;fill-opacity:1;fill-rule:nonzero;stroke:none"
   id="path3085"
   inkscape:connector-curvature="0" /><path
   d="m 289.39,771.02 5.64,0 0,-56.69 -5.64,0 0,56.69 z"
   style="fill:#000000;fill-opacity:1;fill-rule:nonzero;stroke:none"
   id="path3087"
   inkscape:connector-curvature="0" /><path
   d="m 296.44,771.02 2.82,0 0,-56.69 -2.82,0 0,56.69 z"
   style="fill:#000000;fill-opacity:1;fill-rule:nonzero;stroke:none"
   id="path3089"
   inkscape:connector-curvature="0" /><path
   d="m 300.67,771.02 2.82,0 0,-56.69 -2.82,0 0,56.69 z"
   style="fill:#000000;fill-opacity:1;fill-rule:nonzero;stroke:none"
   id="path3091"
   inkscape:connector-curvature="0" /><g
   transform="scale(1,-1)"
   style="font-size:16px;font-style:normal;font-variant:normal;font-weight:normal;font-stretch:normal;line-height:125%;letter-spacing:0px;word-spacing:0px;fill:#000000;fill-opacity:1;stroke:none;font-family:Consolas;-inkscape-font-specification:Consolas"
   id="text3903"><path
     d="m 61.346302,-695.68573 c -2.401045,-2.22396 -3.601565,-4.68229 -3.601562,-7.375 -3e-6,-0.6302 0.0638,-1.25911 0.191406,-1.88672 0.127601,-0.6276 0.33333,-1.2565 0.617187,-1.88672 0.283851,-0.6302 0.658851,-1.26041 1.125,-1.89062 0.466141,-0.6302 1.032547,-1.2552 1.699219,-1.875 l 0.789063,0.80469 c -2.020839,1.9948 -3.031254,4.20573 -3.03125,6.63281 -4e-6,1.20833 0.255204,2.36979 0.765625,3.48437 0.510411,1.11459 1.265619,2.16667 2.265625,3.15625 z"
     style=""
     id="path3046" /><path
     d="m 72.322865,-704.06854 c -9e-6,0.78125 -0.07813,1.49349 -0.234375,2.13672 -0.156258,0.64323 -0.393237,1.19531 -0.710938,1.65625 -0.317715,0.46093 -0.712246,0.81771 -1.183594,1.07031 -0.471359,0.2526 -1.024744,0.3789 -1.660156,0.37891 -0.546879,-10e-6 -1.044274,-0.10287 -1.492187,-0.3086 -0.44792,-0.20573 -0.830732,-0.52213 -1.148438,-0.94922 -0.31771,-0.42708 -0.562501,-0.97135 -0.734375,-1.63281 -0.171876,-0.66145 -0.257813,-1.44531 -0.257812,-2.35156 -10e-7,-0.78125 0.07943,-1.49479 0.238281,-2.14063 0.158853,-0.64582 0.395832,-1.19921 0.710937,-1.66015 0.315102,-0.46093 0.709633,-0.8177 1.183594,-1.07032 0.473955,-0.25259 1.026038,-0.37889 1.65625,-0.3789 0.54687,10e-6 1.044265,0.10287 1.492188,0.30859 0.44791,0.20574 0.830722,0.52345 1.148437,0.95313 0.317701,0.42969 0.562492,0.97526 0.734375,1.63672 0.171867,0.66146 0.257804,1.44531 0.257813,2.35156 z m -1.375,0.0469 c -7e-6,-0.17708 -0.0065,-0.35286 -0.01953,-0.52734 -0.01303,-0.17447 -0.02735,-0.34505 -0.04297,-0.51172 l -4.320313,3.21094 c 0.07812,0.27083 0.177081,0.52083 0.296875,0.75 0.119789,0.22917 0.26432,0.42578 0.433594,0.58984 0.169267,0.16407 0.361976,0.29167 0.578125,0.38281 0.216142,0.0912 0.462235,0.13672 0.738281,0.13672 0.354162,0 0.675776,-0.0859 0.964844,-0.25781 0.289057,-0.17187 0.53515,-0.42708 0.738281,-0.76562 0.203119,-0.33854 0.359369,-0.75912 0.46875,-1.26172 0.109368,-0.5026 0.164056,-1.08463 0.164063,-1.7461 z m -4.671875,-0.0937 c -3e-6,0.16147 0.0013,0.32292 0.0039,0.48438 0.0026,0.16146 0.01172,0.31771 0.02734,0.46875 l 4.320312,-3.19531 c -0.07813,-0.26562 -0.17709,-0.50781 -0.296875,-0.72657 -0.119798,-0.21874 -0.263027,-0.40754 -0.429687,-0.5664 -0.166673,-0.15885 -0.356777,-0.28255 -0.570313,-0.3711 -0.213547,-0.0885 -0.45313,-0.1328 -0.71875,-0.13281 -0.354171,1e-5 -0.675785,0.086 -0.964844,0.25781 -0.289065,0.17189 -0.535159,0.4284 -0.738281,0.76953 -0.203127,0.34116 -0.359377,0.76303 -0.46875,1.26563 -0.109377,0.50261 -0.164065,1.08464 -0.164062,1.74609 z"
     style=""
     id="path3048" /><path
     d="m 80.815052,-698.96698 -6.414062,0 0,-1.26562 2.625,0 0,-7.45313 -2.445313,1.32813 -0.5,-1.15625 3.25,-1.71094 1.203125,0 0,8.99219 2.28125,0 z"
     style=""
     id="path3050" /><path
     d="m 84.690052,-710.59979 c 2.401036,2.22397 3.601556,4.69792 3.601563,7.42187 -7e-6,0.56251 -0.0573,1.14584 -0.171875,1.75 -0.11459,0.60417 -0.309902,1.22266 -0.585938,1.85547 -0.276047,0.63281 -0.64714,1.27474 -1.113281,1.92578 -0.46615,0.65104 -1.053389,1.30469 -1.761719,1.96094 l -0.789062,-0.80469 c 1.015621,-1.00521 1.773433,-2.05469 2.273437,-3.14843 0.499995,-1.09375 0.749995,-2.23959 0.75,-3.4375 -5e-6,-2.47917 -1.007817,-4.70833 -3.023437,-6.6875 z"
     style=""
     id="path3052" /><path
     d="m 98.471302,-704.64667 c -8e-6,0.9948 -0.119799,1.85027 -0.359375,2.56641 -0.239591,0.71615 -0.593757,1.30469 -1.0625,1.76562 -0.468756,0.46094 -1.049484,0.80079 -1.742187,1.01954 -0.692713,0.21875 -1.492191,0.32812 -2.398438,0.32812 l -0.851562,0 0,-1.1875 0.945312,0 c 0.671872,0 1.252601,-0.0677 1.742188,-0.20312 0.489578,-0.13542 0.89713,-0.33464 1.222656,-0.59766 0.325515,-0.26302 0.574213,-0.58333 0.746094,-0.96094 0.171868,-0.3776 0.278639,-0.80859 0.320312,-1.29297 l 0.03125,-0.32031 c -0.328131,0.19271 -0.705735,0.34766 -1.132812,0.46484 -0.427089,0.1172 -0.89063,0.17579 -1.390625,0.17579 -0.515629,0 -0.968753,-0.0755 -1.359375,-0.22657 -0.390628,-0.15103 -0.714846,-0.36197 -0.972657,-0.63281 -0.257814,-0.27083 -0.451824,-0.59244 -0.582031,-0.96484 -0.130209,-0.37239 -0.195313,-0.77734 -0.195312,-1.21485 -10e-7,-0.47395 0.08594,-0.91666 0.257812,-1.32812 0.171874,-0.41145 0.412759,-0.76952 0.722656,-1.07422 0.309894,-0.30468 0.680987,-0.54556 1.113282,-0.72266 0.432288,-0.17707 0.90885,-0.26561 1.429687,-0.26562 0.505204,10e-6 0.972651,0.0833 1.402344,0.25 0.429681,0.16667 0.800775,0.43621 1.113281,0.80859 0.312493,0.37241 0.557284,0.85548 0.734375,1.44922 0.177076,0.59376 0.265617,1.31511 0.265625,2.16406 z m -3.578125,-3.55468 c -0.291671,0 -0.561202,0.0482 -0.808594,0.14453 -0.247399,0.0964 -0.46094,0.23698 -0.640625,0.42187 -0.17969,0.18491 -0.321617,0.41277 -0.425781,0.6836 -0.104169,0.27084 -0.156252,0.58073 -0.15625,0.92968 -2e-6,0.31772 0.03776,0.60157 0.113281,0.85157 0.07552,0.25 0.192706,0.46224 0.351563,0.63671 0.158851,0.17449 0.363278,0.3086 0.613281,0.40235 0.249996,0.0937 0.546871,0.14063 0.890625,0.14062 0.192704,10e-6 0.391923,-0.0182 0.597656,-0.0547 0.205724,-0.0365 0.406245,-0.0859 0.601563,-0.14844 0.195307,-0.0625 0.381504,-0.13541 0.558594,-0.21875 0.177077,-0.0833 0.335931,-0.17187 0.476562,-0.26563 -6e-6,-0.67187 -0.04948,-1.23306 -0.148437,-1.68359 -0.09896,-0.45051 -0.242194,-0.81249 -0.429688,-1.08594 -0.187506,-0.27343 -0.41537,-0.46744 -0.683594,-0.58203 -0.268234,-0.11457 -0.571619,-0.17187 -0.910156,-0.17187 z"
     style=""
     id="path3054" /><path
     d="m 107.08068,-702.2326 c -1e-5,0.50521 -0.10939,0.96614 -0.32813,1.38281 -0.21876,0.41667 -0.51954,0.77474 -0.90234,1.07422 -0.38282,0.29948 -0.83464,0.53255 -1.35547,0.69922 -0.52084,0.16666 -1.08334,0.24999 -1.6875,0.25 -0.15105,-10e-6 -0.31381,-0.004 -0.48828,-0.0117 -0.17448,-0.008 -0.34766,-0.0182 -0.51953,-0.0312 -0.17188,-0.013 -0.33985,-0.0273 -0.50391,-0.043 -0.16406,-0.0156 -0.3112,-0.0339 -0.44141,-0.0547 l 0,-1.23437 c 0.28125,0.0677 0.60287,0.11718 0.96485,0.14843 0.36197,0.0312 0.72786,0.0469 1.09765,0.0469 0.41667,0 0.79167,-0.0495 1.125,-0.14844 0.33333,-0.099 0.61719,-0.24088 0.85157,-0.42578 0.23437,-0.1849 0.41405,-0.40885 0.53906,-0.67188 0.12499,-0.26301 0.18749,-0.55859 0.1875,-0.88671 -10e-6,-0.63542 -0.22787,-1.09766 -0.68359,-1.38672 -0.45574,-0.28906 -1.11069,-0.43359 -1.96485,-0.4336 l -1.9375,0 0,-5.21875 5.5,0 0,1.1875 -4.21875,0 0,2.86719 0.89063,0 c 0.48958,1e-5 0.96614,0.0443 1.42968,0.13281 0.46354,0.0885 0.8763,0.2435 1.23829,0.46485 0.36197,0.22136 0.65363,0.51823 0.875,0.89062 0.22134,0.3724 0.33202,0.83985 0.33203,1.40235 z"
     style=""
     id="path3056" /><path
     d="m 116.38536,-704.06854 c 0,0.78125 -0.0781,1.49349 -0.23437,2.13672 -0.15626,0.64323 -0.39324,1.19531 -0.71094,1.65625 -0.31771,0.46093 -0.71224,0.81771 -1.18359,1.07031 -0.47136,0.2526 -1.02475,0.3789 -1.66016,0.37891 -0.54688,-10e-6 -1.04427,-0.10287 -1.49219,-0.3086 -0.44791,-0.20573 -0.83073,-0.52213 -1.14843,-0.94922 -0.31771,-0.42708 -0.5625,-0.97135 -0.73438,-1.63281 -0.17187,-0.66145 -0.25781,-1.44531 -0.25781,-2.35156 0,-0.78125 0.0794,-1.49479 0.23828,-2.14063 0.15885,-0.64582 0.39583,-1.19921 0.71094,-1.66015 0.3151,-0.46093 0.70963,-0.8177 1.18359,-1.07032 0.47396,-0.25259 1.02604,-0.37889 1.65625,-0.3789 0.54687,10e-6 1.04427,0.10287 1.49219,0.30859 0.44791,0.20574 0.83072,0.52345 1.14844,0.95313 0.3177,0.42969 0.56249,0.97526 0.73437,1.63672 0.17187,0.66146 0.25781,1.44531 0.25781,2.35156 z m -1.375,0.0469 c 0,-0.17708 -0.007,-0.35286 -0.0195,-0.52734 -0.013,-0.17447 -0.0273,-0.34505 -0.043,-0.51172 l -4.32031,3.21094 c 0.0781,0.27083 0.17708,0.52083 0.29688,0.75 0.11979,0.22917 0.26432,0.42578 0.43359,0.58984 0.16927,0.16407 0.36198,0.29167 0.57813,0.38281 0.21614,0.0912 0.46223,0.13672 0.73828,0.13672 0.35416,0 0.67577,-0.0859 0.96484,-0.25781 0.28906,-0.17187 0.53515,-0.42708 0.73828,-0.76562 0.20312,-0.33854 0.35937,-0.75912 0.46875,-1.26172 0.10937,-0.5026 0.16406,-1.08463 0.16406,-1.7461 z m -4.67187,-0.0937 c 0,0.16147 0.001,0.32292 0.004,0.48438 0.003,0.16146 0.0117,0.31771 0.0273,0.46875 l 4.32031,-3.19531 c -0.0781,-0.26562 -0.17709,-0.50781 -0.29687,-0.72657 -0.1198,-0.21874 -0.26303,-0.40754 -0.42969,-0.5664 -0.16667,-0.15885 -0.35678,-0.28255 -0.57031,-0.3711 -0.21355,-0.0885 -0.45313,-0.1328 -0.71875,-0.13281 -0.35417,1e-5 -0.67579,0.086 -0.96485,0.25781 -0.28906,0.17189 -0.53516,0.4284 -0.73828,0.76953 -0.20313,0.34116 -0.35938,0.76303 -0.46875,1.26563 -0.10938,0.50261 -0.16406,1.08464 -0.16406,1.74609 z"
     style=""
     id="path3058" /><path
     d="m 124.87755,-698.96698 -6.41406,0 0,-1.26562 2.625,0 0,-7.45313 -2.44531,1.32813 -0.5,-1.15625 3.25,-1.71094 1.20312,0 0,8.99219 2.28125,0 z"
     style=""
     id="path3060" /><path
     d="m 133.77599,-698.96698 -6.72656,0 0,-1.21875 2.64062,-2.625 c 0.43229,-0.42708 0.78385,-0.79687 1.05469,-1.10937 0.27083,-0.3125 0.48177,-0.59766 0.63281,-0.85547 0.15104,-0.25781 0.2526,-0.5013 0.30469,-0.73047 0.0521,-0.22916 0.0781,-0.47656 0.0781,-0.74219 0,-0.24999 -0.0339,-0.48827 -0.10156,-0.71484 -0.0677,-0.22656 -0.17188,-0.42578 -0.3125,-0.59766 -0.14063,-0.17187 -0.32292,-0.30728 -0.54687,-0.40625 -0.22397,-0.0989 -0.49219,-0.14843 -0.80469,-0.14844 -0.4323,10e-6 -0.82552,0.0964 -1.17969,0.28907 -0.35417,0.19271 -0.67969,0.44271 -0.97656,0.75 l -0.75,-0.89844 c 0.38541,-0.40624 0.82942,-0.73176 1.33203,-0.97656 0.5026,-0.24479 1.08724,-0.36718 1.75391,-0.36719 0.45312,10e-6 0.86588,0.0677 1.23828,0.20312 0.37239,0.13543 0.694,0.33074 0.96484,0.58594 0.27083,0.25522 0.48046,0.56772 0.62891,0.9375 0.14843,0.3698 0.22265,0.78647 0.22265,1.25 0,0.39063 -0.0521,0.75261 -0.15625,1.08594 -0.10417,0.33334 -0.26172,0.66537 -0.47265,0.99609 -0.21095,0.33074 -0.47657,0.67318 -0.79688,1.02735 -0.32031,0.35417 -0.69922,0.74219 -1.13672,1.16406 l -1.85156,1.80469 4.96094,0 z"
     style=""
     id="path3062" /><path
     d="m 142.39318,-702.06854 c -1e-5,0.44792 -0.0912,0.86849 -0.27344,1.26172 -0.1823,0.39323 -0.45574,0.73698 -0.82031,1.03125 -0.36459,0.29427 -0.82293,0.52604 -1.375,0.69531 -0.55209,0.16927 -1.19532,0.2539 -1.92969,0.25391 -0.40625,-10e-6 -0.77084,-0.013 -1.09375,-0.0391 -0.32292,-0.026 -0.625,-0.0599 -0.90625,-0.10156 l 0,-1.21875 c 0.32291,0.0573 0.66406,0.10156 1.02344,0.13281 0.35937,0.0312 0.72656,0.0469 1.10156,0.0469 0.51041,0 0.94661,-0.0456 1.30859,-0.13672 0.36198,-0.0912 0.65755,-0.22266 0.88672,-0.39453 0.22916,-0.17188 0.39583,-0.38021 0.5,-0.625 0.10416,-0.24479 0.15625,-0.52083 0.15625,-0.82813 0,-0.28124 -0.0625,-0.52604 -0.1875,-0.73437 -0.125,-0.20833 -0.30078,-0.38281 -0.52734,-0.52344 -0.22657,-0.14062 -0.4974,-0.24609 -0.8125,-0.31641 -0.31511,-0.0703 -0.66016,-0.10546 -1.03516,-0.10546 l -1.16406,0 0,-1.11719 1.17969,0 c 0.30728,0 0.58723,-0.0404 0.83984,-0.1211 0.2526,-0.0807 0.46875,-0.1966 0.64844,-0.34765 0.17968,-0.15104 0.3177,-0.33724 0.41406,-0.5586 0.0964,-0.22134 0.14453,-0.47265 0.14453,-0.7539 0,-0.54687 -0.16667,-0.94531 -0.5,-1.19531 -0.33334,-0.25 -0.82292,-0.375 -1.46875,-0.375 -0.34375,0 -0.69792,0.0339 -1.0625,0.10156 -0.36458,0.0677 -0.75521,0.16928 -1.17187,0.30469 l 0,-1.1875 c 0.17708,-0.0625 0.36588,-0.11848 0.5664,-0.16797 0.20052,-0.0495 0.40104,-0.0911 0.60157,-0.125 0.20051,-0.0339 0.39973,-0.0599 0.59765,-0.0781 0.19792,-0.0182 0.38802,-0.0273 0.57031,-0.0273 0.54167,10e-6 1.01823,0.0586 1.42969,0.17578 0.41145,0.1172 0.7552,0.28516 1.03125,0.50391 0.27604,0.21875 0.48437,0.48438 0.625,0.79687 0.14062,0.31251 0.21093,0.66407 0.21094,1.05469 -1e-5,0.58334 -0.14975,1.07292 -0.44922,1.46875 -0.29948,0.39584 -0.70964,0.71094 -1.23047,0.94531 0.26562,0.0417 0.52734,0.12501 0.78516,0.25 0.2578,0.12501 0.48957,0.28516 0.69531,0.48047 0.20572,0.19532 0.37239,0.42578 0.5,0.69141 0.1276,0.26562 0.1914,0.55989 0.19141,0.88281 z"
     style=""
     id="path3064" /><path
     d="m 151.9088,-701.22479 -1.74219,0 0,2.25781 -1.39062,0 0,-2.25781 -4.91406,0 0,-1.19531 4.35156,-6.75782 1.95312,0 0,6.75782 1.74219,0 z m -3.13281,-6.64063 -3.55469,5.44532 3.55469,0 z"
     style=""
     id="path3066" /><path
     d="m 159.95568,-702.2326 c -1e-5,0.50521 -0.10939,0.96614 -0.32813,1.38281 -0.21876,0.41667 -0.51954,0.77474 -0.90234,1.07422 -0.38282,0.29948 -0.83464,0.53255 -1.35547,0.69922 -0.52084,0.16666 -1.08334,0.24999 -1.6875,0.25 -0.15105,-10e-6 -0.31381,-0.004 -0.48828,-0.0117 -0.17448,-0.008 -0.34766,-0.0182 -0.51953,-0.0312 -0.17188,-0.013 -0.33985,-0.0273 -0.50391,-0.043 -0.16406,-0.0156 -0.3112,-0.0339 -0.44141,-0.0547 l 0,-1.23437 c 0.28125,0.0677 0.60287,0.11718 0.96485,0.14843 0.36197,0.0312 0.72786,0.0469 1.09765,0.0469 0.41667,0 0.79167,-0.0495 1.125,-0.14844 0.33333,-0.099 0.61719,-0.24088 0.85157,-0.42578 0.23437,-0.1849 0.41405,-0.40885 0.53906,-0.67188 0.12499,-0.26301 0.18749,-0.55859 0.1875,-0.88671 -1e-5,-0.63542 -0.22787,-1.09766 -0.68359,-1.38672 -0.45574,-0.28906 -1.11069,-0.43359 -1.96485,-0.4336 l -1.9375,0 0,-5.21875 5.5,0 0,1.1875 -4.21875,0 0,2.86719 0.89063,0 c 0.48958,1e-5 0.96614,0.0443 1.42968,0.13281 0.46354,0.0885 0.8763,0.2435 1.23829,0.46485 0.36197,0.22136 0.65363,0.51823 0.875,0.89062 0.22134,0.3724 0.33202,0.83985 0.33203,1.40235 z"
     style=""
     id="path3068" /><path
     d="m 169.15099,-702.20135 c -1e-5,0.46875 -0.0846,0.90885 -0.25391,1.32031 -0.16928,0.41146 -0.41016,0.76953 -0.72265,1.07422 -0.31251,0.30468 -0.68881,0.54427 -1.12891,0.71875 -0.44011,0.17448 -0.92839,0.26171 -1.46484,0.26172 -0.56251,-10e-6 -1.0599,-0.0898 -1.49219,-0.26954 -0.43229,-0.17968 -0.79427,-0.45572 -1.08594,-0.82812 -0.29167,-0.3724 -0.51302,-0.84245 -0.66406,-1.41016 -0.15104,-0.5677 -0.22656,-1.23958 -0.22656,-2.01562 0,-0.52083 0.0339,-1.02604 0.10156,-1.51563 0.0677,-0.48957 0.17969,-0.95051 0.33594,-1.38281 0.15625,-0.43228 0.36458,-0.82812 0.625,-1.1875 0.26041,-0.35937 0.58463,-0.66796 0.97265,-0.92578 0.38802,-0.2578 0.84505,-0.45832 1.3711,-0.60156 0.52603,-0.14322 1.13541,-0.21484 1.82812,-0.21485 l 1.00781,0 0,1.1875 -1.09375,0 c -0.60938,10e-6 -1.13802,0.0729 -1.58593,0.21875 -0.44792,0.14584 -0.82292,0.35157 -1.125,0.61719 -0.30209,0.26563 -0.53386,0.58595 -0.69532,0.96094 -0.16146,0.375 -0.26302,0.79427 -0.30468,1.25781 l -0.0312,0.32031 c 0.32812,-0.1927 0.70703,-0.34765 1.13672,-0.46484 0.42968,-0.11718 0.89452,-0.17578 1.39453,-0.17578 0.51562,0 0.96744,0.0755 1.35547,0.22656 0.38801,0.15105 0.71093,0.36068 0.96875,0.62891 0.2578,0.26823 0.45181,0.58984 0.58203,0.96484 0.1302,0.375 0.1953,0.78646 0.19531,1.23438 z m -1.42188,0.0859 c 0,-0.31249 -0.0378,-0.59505 -0.11328,-0.84765 -0.0755,-0.2526 -0.19401,-0.46615 -0.35547,-0.64063 -0.16146,-0.17447 -0.36589,-0.30989 -0.61328,-0.40625 -0.2474,-0.0964 -0.54297,-0.14452 -0.88672,-0.14453 -0.19792,1e-5 -0.39844,0.0182 -0.60156,0.0547 -0.20313,0.0365 -0.40235,0.0872 -0.59765,0.15234 -0.19532,0.0651 -0.38152,0.13933 -0.5586,0.22266 -0.17708,0.0833 -0.33854,0.17188 -0.48437,0.26562 -1e-5,0.67188 0.0469,1.23308 0.14062,1.6836 0.0937,0.45052 0.23307,0.8112 0.41797,1.08203 0.18489,0.27083 0.41276,0.46354 0.68359,0.57812 0.27083,0.11459 0.58333,0.17188 0.9375,0.17188 0.29687,0 0.56901,-0.0482 0.81641,-0.14453 0.24739,-0.0964 0.46093,-0.23828 0.64063,-0.42578 0.17968,-0.1875 0.3203,-0.41537 0.42187,-0.6836 0.10156,-0.26823 0.15234,-0.57421 0.15234,-0.91797 z"
     style=""
     id="path3070" /><path
     d="m 177.7838,-707.91229 -4.28125,8.94531 -1.55469,0 4.44532,-8.94531 -5.51563,0 0,-1.26563 6.90625,0 z"
     style=""
     id="path3072" /><path
     d="m 186.65099,-701.52948 c -1e-5,0.43229 -0.0885,0.81641 -0.26563,1.15234 -0.17709,0.33594 -0.42448,0.61849 -0.74218,0.84766 -0.31772,0.22917 -0.69272,0.40365 -1.125,0.52344 -0.4323,0.11979 -0.90105,0.17968 -1.40625,0.17969 -0.5573,-10e-6 -1.04818,-0.0625 -1.47266,-0.1875 -0.42448,-0.125 -0.77995,-0.29948 -1.06641,-0.52344 -0.28646,-0.22396 -0.5026,-0.48958 -0.64843,-0.79688 -0.14584,-0.30729 -0.21875,-0.64583 -0.21875,-1.01562 0,-0.625 0.17448,-1.16406 0.52343,-1.61719 0.34896,-0.45312 0.88802,-0.86458 1.61719,-1.23437 -0.66667,-0.33854 -1.15365,-0.71484 -1.46094,-1.12891 -0.30729,-0.41406 -0.46093,-0.88932 -0.46093,-1.42578 0,-0.32812 0.0677,-0.64583 0.20312,-0.95313 0.13542,-0.30728 0.33984,-0.58072 0.61328,-0.82031 0.27344,-0.23957 0.61589,-0.43098 1.02735,-0.57422 0.41145,-0.14322 0.89583,-0.21483 1.45312,-0.21484 0.52604,10e-6 0.98828,0.056 1.38672,0.16797 0.39843,0.11199 0.73307,0.27214 1.00391,0.48047 0.27082,0.20834 0.47395,0.46094 0.60937,0.75781 0.13541,0.29688 0.20312,0.62761 0.20313,0.99219 -1e-5,0.59375 -0.16538,1.09896 -0.4961,1.51562 -0.33073,0.41667 -0.80078,0.78126 -1.41015,1.09375 0.30207,0.15105 0.58332,0.31771 0.84375,0.5 0.26041,0.1823 0.48697,0.38542 0.67968,0.60938 0.19271,0.22396 0.34244,0.47396 0.44922,0.75 0.10677,0.27604 0.16015,0.58333 0.16016,0.92187 z m -1.61719,-5.28125 c 0,-0.46353 -0.16276,-0.80859 -0.48828,-1.03516 -0.32553,-0.22655 -0.78256,-0.33983 -1.37109,-0.33984 -0.58334,1e-5 -1.03777,0.11199 -1.36328,0.33594 -0.32553,0.22396 -0.48829,0.5599 -0.48829,1.00781 0,0.20313 0.0391,0.39063 0.11719,0.5625 0.0781,0.17188 0.19922,0.33334 0.36328,0.48438 0.16406,0.15104 0.36849,0.29948 0.61328,0.44531 0.24479,0.14584 0.53646,0.29427 0.875,0.44531 0.58854,-0.27604 1.02604,-0.5638 1.3125,-0.86328 0.28646,-0.29947 0.42969,-0.64713 0.42969,-1.04297 z m 0.14063,5.38281 c -1e-5,-0.1927 -0.0313,-0.3802 -0.0937,-0.5625 -0.0625,-0.18229 -0.17449,-0.36197 -0.33594,-0.53906 -0.16146,-0.17708 -0.37761,-0.35416 -0.64844,-0.53125 -0.27084,-0.17708 -0.61459,-0.35937 -1.03125,-0.54687 -0.35417,0.17187 -0.65235,0.34245 -0.89453,0.51171 -0.24219,0.16928 -0.4375,0.34115 -0.58594,0.51563 -0.14844,0.17448 -0.25391,0.35547 -0.3164,0.54297 -0.0625,0.1875 -0.0938,0.38542 -0.0937,0.59375 -1e-5,0.23437 0.0508,0.44141 0.15234,0.62109 0.10156,0.17969 0.24088,0.33203 0.41797,0.45703 0.17708,0.125 0.38802,0.21875 0.63281,0.28125 0.24479,0.0625 0.51041,0.0937 0.79688,0.0937 0.27603,0 0.53645,-0.0286 0.78125,-0.0859 0.24478,-0.0573 0.45702,-0.14453 0.63672,-0.26172 0.17968,-0.11719 0.3216,-0.26563 0.42578,-0.44532 0.10416,-0.17968 0.15624,-0.39453 0.15625,-0.64453 z"
     style=""
     id="path3074" /><path
     d="m 195.4088,-704.64667 c -1e-5,0.9948 -0.1198,1.85027 -0.35937,2.56641 -0.23959,0.71615 -0.59376,1.30469 -1.0625,1.76562 -0.46876,0.46094 -1.04949,0.80079 -1.74219,1.01954 -0.69271,0.21875 -1.49219,0.32812 -2.39844,0.32812 l -0.85156,0 0,-1.1875 0.94531,0 c 0.67187,0 1.2526,-0.0677 1.74219,-0.20312 0.48958,-0.13542 0.89713,-0.33464 1.22266,-0.59766 0.32551,-0.26302 0.57421,-0.58333 0.74609,-0.96094 0.17187,-0.3776 0.27864,-0.80859 0.32031,-1.29297 l 0.0312,-0.32031 c -0.32813,0.19271 -0.70573,0.34766 -1.13281,0.46484 -0.42709,0.1172 -0.89063,0.17579 -1.39063,0.17579 -0.51562,0 -0.96875,-0.0755 -1.35937,-0.22657 -0.39063,-0.15103 -0.71485,-0.36197 -0.97266,-0.63281 -0.25781,-0.27083 -0.45182,-0.59244 -0.58203,-0.96484 -0.13021,-0.37239 -0.19531,-0.77734 -0.19531,-1.21485 0,-0.47395 0.0859,-0.91666 0.25781,-1.32812 0.17188,-0.41145 0.41276,-0.76952 0.72266,-1.07422 0.30989,-0.30468 0.68099,-0.54556 1.11328,-0.72266 0.43229,-0.17707 0.90885,-0.26561 1.42969,-0.26562 0.5052,10e-6 0.97265,0.0833 1.40234,0.25 0.42968,0.16667 0.80078,0.43621 1.11328,0.80859 0.31249,0.37241 0.55729,0.85548 0.73438,1.44922 0.17707,0.59376 0.26561,1.31511 0.26562,2.16406 z m -3.57812,-3.55468 c -0.29167,0 -0.5612,0.0482 -0.8086,0.14453 -0.2474,0.0964 -0.46094,0.23698 -0.64062,0.42187 -0.17969,0.18491 -0.32162,0.41277 -0.42578,0.6836 -0.10417,0.27084 -0.15626,0.58073 -0.15625,0.92968 -1e-5,0.31772 0.0378,0.60157 0.11328,0.85157 0.0755,0.25 0.1927,0.46224 0.35156,0.63671 0.15885,0.17449 0.36328,0.3086 0.61328,0.40235 0.25,0.0937 0.54687,0.14063 0.89063,0.14062 0.1927,10e-6 0.39192,-0.0182 0.59765,-0.0547 0.20573,-0.0365 0.40625,-0.0859 0.60157,-0.14844 0.1953,-0.0625 0.3815,-0.13541 0.55859,-0.21875 0.17708,-0.0833 0.33593,-0.17187 0.47656,-0.26563 0,-0.67187 -0.0495,-1.23306 -0.14844,-1.68359 -0.099,-0.45051 -0.24219,-0.81249 -0.42968,-1.08594 -0.18751,-0.27343 -0.41537,-0.46744 -0.6836,-0.58203 -0.26823,-0.11457 -0.57162,-0.17187 -0.91015,-0.17187 z"
     style=""
     id="path3076" /><path
     d="m 204.51036,-704.06854 c 0,0.78125 -0.0781,1.49349 -0.23437,2.13672 -0.15626,0.64323 -0.39324,1.19531 -0.71094,1.65625 -0.31771,0.46093 -0.71224,0.81771 -1.18359,1.07031 -0.47136,0.2526 -1.02475,0.3789 -1.66016,0.37891 -0.54688,-10e-6 -1.04427,-0.10287 -1.49219,-0.3086 -0.44791,-0.20573 -0.83073,-0.52213 -1.14843,-0.94922 -0.31771,-0.42708 -0.5625,-0.97135 -0.73438,-1.63281 -0.17187,-0.66145 -0.25781,-1.44531 -0.25781,-2.35156 0,-0.78125 0.0794,-1.49479 0.23828,-2.14063 0.15885,-0.64582 0.39583,-1.19921 0.71094,-1.66015 0.3151,-0.46093 0.70963,-0.8177 1.18359,-1.07032 0.47396,-0.25259 1.02604,-0.37889 1.65625,-0.3789 0.54687,10e-6 1.04427,0.10287 1.49219,0.30859 0.44791,0.20574 0.83072,0.52345 1.14844,0.95313 0.3177,0.42969 0.56249,0.97526 0.73437,1.63672 0.17187,0.66146 0.25781,1.44531 0.25781,2.35156 z m -1.375,0.0469 c 0,-0.17708 -0.007,-0.35286 -0.0195,-0.52734 -0.013,-0.17447 -0.0273,-0.34505 -0.043,-0.51172 l -4.32031,3.21094 c 0.0781,0.27083 0.17708,0.52083 0.29688,0.75 0.11979,0.22917 0.26432,0.42578 0.43359,0.58984 0.16927,0.16407 0.36198,0.29167 0.57813,0.38281 0.21614,0.0912 0.46223,0.13672 0.73828,0.13672 0.35416,0 0.67577,-0.0859 0.96484,-0.25781 0.28906,-0.17187 0.53515,-0.42708 0.73828,-0.76562 0.20312,-0.33854 0.35937,-0.75912 0.46875,-1.26172 0.10937,-0.5026 0.16406,-1.08463 0.16406,-1.7461 z m -4.67187,-0.0937 c 0,0.16147 0.001,0.32292 0.004,0.48438 0.003,0.16146 0.0117,0.31771 0.0273,0.46875 l 4.32031,-3.19531 c -0.0781,-0.26562 -0.17709,-0.50781 -0.29687,-0.72657 -0.1198,-0.21874 -0.26303,-0.40754 -0.42969,-0.5664 -0.16667,-0.15885 -0.35678,-0.28255 -0.57031,-0.3711 -0.21355,-0.0885 -0.45313,-0.1328 -0.71875,-0.13281 -0.35417,1e-5 -0.67579,0.086 -0.96485,0.25781 -0.28906,0.17189 -0.53516,0.4284 -0.73828,0.76953 -0.20313,0.34116 -0.35938,0.76303 -0.46875,1.26563 -0.10938,0.50261 -0.16406,1.08464 -0.16406,1.74609 z"
     style=""
     id="path3078" /><path
     d="m 212.89318,-702.06854 c -1e-5,0.44792 -0.0912,0.86849 -0.27344,1.26172 -0.1823,0.39323 -0.45574,0.73698 -0.82031,1.03125 -0.36459,0.29427 -0.82293,0.52604 -1.375,0.69531 -0.55209,0.16927 -1.19532,0.2539 -1.92969,0.25391 -0.40625,-10e-6 -0.77084,-0.013 -1.09375,-0.0391 -0.32292,-0.026 -0.625,-0.0599 -0.90625,-0.10156 l 0,-1.21875 c 0.32291,0.0573 0.66406,0.10156 1.02344,0.13281 0.35937,0.0312 0.72656,0.0469 1.10156,0.0469 0.51041,0 0.94661,-0.0456 1.30859,-0.13672 0.36198,-0.0912 0.65755,-0.22266 0.88672,-0.39453 0.22916,-0.17188 0.39583,-0.38021 0.5,-0.625 0.10416,-0.24479 0.15625,-0.52083 0.15625,-0.82813 0,-0.28124 -0.0625,-0.52604 -0.1875,-0.73437 -0.125,-0.20833 -0.30078,-0.38281 -0.52734,-0.52344 -0.22657,-0.14062 -0.4974,-0.24609 -0.8125,-0.31641 -0.31511,-0.0703 -0.66016,-0.10546 -1.03516,-0.10546 l -1.16406,0 0,-1.11719 1.17969,0 c 0.30728,0 0.58723,-0.0404 0.83984,-0.1211 0.2526,-0.0807 0.46875,-0.1966 0.64844,-0.34765 0.17968,-0.15104 0.3177,-0.33724 0.41406,-0.5586 0.0964,-0.22134 0.14453,-0.47265 0.14453,-0.7539 0,-0.54687 -0.16667,-0.94531 -0.5,-1.19531 -0.33334,-0.25 -0.82292,-0.375 -1.46875,-0.375 -0.34375,0 -0.69792,0.0339 -1.0625,0.10156 -0.36458,0.0677 -0.75521,0.16928 -1.17187,0.30469 l 0,-1.1875 c 0.17708,-0.0625 0.36588,-0.11848 0.5664,-0.16797 0.20052,-0.0495 0.40104,-0.0911 0.60157,-0.125 0.20051,-0.0339 0.39973,-0.0599 0.59765,-0.0781 0.19792,-0.0182 0.38802,-0.0273 0.57031,-0.0273 0.54167,10e-6 1.01823,0.0586 1.42969,0.17578 0.41145,0.1172 0.7552,0.28516 1.03125,0.50391 0.27604,0.21875 0.48437,0.48438 0.625,0.79687 0.14062,0.31251 0.21093,0.66407 0.21094,1.05469 -1e-5,0.58334 -0.14975,1.07292 -0.44922,1.46875 -0.29948,0.39584 -0.70964,0.71094 -1.23047,0.94531 0.26562,0.0417 0.52734,0.12501 0.78516,0.25 0.2578,0.12501 0.48957,0.28516 0.69531,0.48047 0.20572,0.19532 0.37239,0.42578 0.5,0.69141 0.1276,0.26562 0.1914,0.55989 0.19141,0.88281 z"
     style=""
     id="path3080" /><path
     d="m 219.9713,-695.68573 c -2.40104,-2.22396 -3.60156,-4.68229 -3.60156,-7.375 0,-0.6302 0.0638,-1.25911 0.19141,-1.88672 0.1276,-0.6276 0.33333,-1.2565 0.61718,-1.88672 0.28385,-0.6302 0.65885,-1.26041 1.125,-1.89062 0.46614,-0.6302 1.03255,-1.2552 1.69922,-1.875 l 0.78906,0.80469 c -2.02083,1.9948 -3.03125,4.20573 -3.03125,6.63281 0,1.20833 0.25521,2.36979 0.76563,3.48437 0.51041,1.11459 1.26562,2.16667 2.26562,3.15625 z"
     style=""
     id="path3082" /><path
     d="m 230.51818,-702.06854 c -1e-5,0.44792 -0.0912,0.86849 -0.27344,1.26172 -0.1823,0.39323 -0.45574,0.73698 -0.82031,1.03125 -0.36459,0.29427 -0.82293,0.52604 -1.375,0.69531 -0.55209,0.16927 -1.19532,0.2539 -1.92969,0.25391 -0.40625,-10e-6 -0.77084,-0.013 -1.09375,-0.0391 -0.32292,-0.026 -0.625,-0.0599 -0.90625,-0.10156 l 0,-1.21875 c 0.32291,0.0573 0.66406,0.10156 1.02344,0.13281 0.35937,0.0312 0.72656,0.0469 1.10156,0.0469 0.51041,0 0.94661,-0.0456 1.30859,-0.13672 0.36198,-0.0912 0.65755,-0.22266 0.88672,-0.39453 0.22916,-0.17188 0.39583,-0.38021 0.5,-0.625 0.10416,-0.24479 0.15625,-0.52083 0.15625,-0.82813 0,-0.28124 -0.0625,-0.52604 -0.1875,-0.73437 -0.125,-0.20833 -0.30078,-0.38281 -0.52734,-0.52344 -0.22657,-0.14062 -0.4974,-0.24609 -0.8125,-0.31641 -0.31511,-0.0703 -0.66016,-0.10546 -1.03516,-0.10546 l -1.16406,0 0,-1.11719 1.17969,0 c 0.30728,0 0.58723,-0.0404 0.83984,-0.1211 0.2526,-0.0807 0.46875,-0.1966 0.64844,-0.34765 0.17968,-0.15104 0.3177,-0.33724 0.41406,-0.5586 0.0964,-0.22134 0.14453,-0.47265 0.14453,-0.7539 0,-0.54687 -0.16667,-0.94531 -0.5,-1.19531 -0.33334,-0.25 -0.82292,-0.375 -1.46875,-0.375 -0.34375,0 -0.69792,0.0339 -1.0625,0.10156 -0.36458,0.0677 -0.75521,0.16928 -1.17187,0.30469 l 0,-1.1875 c 0.17708,-0.0625 0.36588,-0.11848 0.5664,-0.16797 0.20052,-0.0495 0.40104,-0.0911 0.60157,-0.125 0.20051,-0.0339 0.39973,-0.0599 0.59765,-0.0781 0.19792,-0.0182 0.38802,-0.0273 0.57031,-0.0273 0.54167,10e-6 1.01823,0.0586 1.42969,0.17578 0.41145,0.1172 0.7552,0.28516 1.03125,0.50391 0.27604,0.21875 0.48437,0.48438 0.625,0.79687 0.14062,0.31251 0.21093,0.66407 0.21094,1.05469 -1e-5,0.58334 -0.14975,1.07292 -0.44922,1.46875 -0.29948,0.39584 -0.70964,0.71094 -1.23047,0.94531 0.26562,0.0417 0.52734,0.12501 0.78516,0.25 0.2578,0.12501 0.48957,0.28516 0.69531,0.48047 0.20572,0.19532 0.37239,0.42578 0.5,0.69141 0.1276,0.26562 0.1914,0.55989 0.19141,0.88281 z"
     style=""
     id="path3084" /><path
     d="m 239.44005,-698.96698 -6.41406,0 0,-1.26562 2.625,0 0,-7.45313 -2.44531,1.32813 -0.5,-1.15625 3.25,-1.71094 1.20312,0 0,8.99219 2.28125,0 z"
     style=""
     id="path3086" /><path
     d="m 248.57286,-704.06854 c 0,0.78125 -0.0781,1.49349 -0.23437,2.13672 -0.15626,0.64323 -0.39324,1.19531 -0.71094,1.65625 -0.31771,0.46093 -0.71224,0.81771 -1.18359,1.07031 -0.47136,0.2526 -1.02475,0.3789 -1.66016,0.37891 -0.54688,-10e-6 -1.04427,-0.10287 -1.49219,-0.3086 -0.44791,-0.20573 -0.83073,-0.52213 -1.14843,-0.94922 -0.31771,-0.42708 -0.5625,-0.97135 -0.73438,-1.63281 -0.17187,-0.66145 -0.25781,-1.44531 -0.25781,-2.35156 0,-0.78125 0.0794,-1.49479 0.23828,-2.14063 0.15885,-0.64582 0.39583,-1.19921 0.71094,-1.66015 0.3151,-0.46093 0.70963,-0.8177 1.18359,-1.07032 0.47396,-0.25259 1.02604,-0.37889 1.65625,-0.3789 0.54687,10e-6 1.04427,0.10287 1.49219,0.30859 0.44791,0.20574 0.83072,0.52345 1.14844,0.95313 0.3177,0.42969 0.56249,0.97526 0.73437,1.63672 0.17187,0.66146 0.25781,1.44531 0.25781,2.35156 z m -1.375,0.0469 c 0,-0.17708 -0.007,-0.35286 -0.0195,-0.52734 -0.013,-0.17447 -0.0273,-0.34505 -0.043,-0.51172 l -4.32031,3.21094 c 0.0781,0.27083 0.17708,0.52083 0.29688,0.75 0.11979,0.22917 0.26432,0.42578 0.43359,0.58984 0.16927,0.16407 0.36198,0.29167 0.57813,0.38281 0.21614,0.0912 0.46223,0.13672 0.73828,0.13672 0.35416,0 0.67577,-0.0859 0.96484,-0.25781 0.28906,-0.17187 0.53515,-0.42708 0.73828,-0.76562 0.20312,-0.33854 0.35937,-0.75912 0.46875,-1.26172 0.10937,-0.5026 0.16406,-1.08463 0.16406,-1.7461 z m -4.67187,-0.0937 c 0,0.16147 0.001,0.32292 0.004,0.48438 0.003,0.16146 0.0117,0.31771 0.0273,0.46875 l 4.32031,-3.19531 c -0.0781,-0.26562 -0.17709,-0.50781 -0.29687,-0.72657 -0.1198,-0.21874 -0.26303,-0.40754 -0.42969,-0.5664 -0.16667,-0.15885 -0.35678,-0.28255 -0.57031,-0.3711 -0.21355,-0.0885 -0.45313,-0.1328 -0.71875,-0.13281 -0.35417,1e-5 -0.67579,0.086 -0.96485,0.25781 -0.28906,0.17189 -0.53516,0.4284 -0.73828,0.76953 -0.20313,0.34116 -0.35938,0.76303 -0.46875,1.26563 -0.10938,0.50261 -0.16406,1.08464 -0.16406,1.74609 z"
     style=""
     id="path3088" /><path
     d="m 256.95568,-702.06854 c -10e-6,0.44792 -0.0912,0.86849 -0.27344,1.26172 -0.1823,0.39323 -0.45574,0.73698 -0.82031,1.03125 -0.36459,0.29427 -0.82293,0.52604 -1.375,0.69531 -0.55209,0.16927 -1.19532,0.2539 -1.92969,0.25391 -0.40625,-10e-6 -0.77084,-0.013 -1.09375,-0.0391 -0.32292,-0.026 -0.625,-0.0599 -0.90625,-0.10156 l 0,-1.21875 c 0.32291,0.0573 0.66406,0.10156 1.02344,0.13281 0.35937,0.0312 0.72656,0.0469 1.10156,0.0469 0.51041,0 0.94661,-0.0456 1.30859,-0.13672 0.36198,-0.0912 0.65755,-0.22266 0.88672,-0.39453 0.22916,-0.17188 0.39583,-0.38021 0.5,-0.625 0.10416,-0.24479 0.15625,-0.52083 0.15625,-0.82813 0,-0.28124 -0.0625,-0.52604 -0.1875,-0.73437 -0.125,-0.20833 -0.30078,-0.38281 -0.52734,-0.52344 -0.22657,-0.14062 -0.4974,-0.24609 -0.8125,-0.31641 -0.31511,-0.0703 -0.66016,-0.10546 -1.03516,-0.10546 l -1.16406,0 0,-1.11719 1.17969,0 c 0.30728,0 0.58723,-0.0404 0.83984,-0.1211 0.2526,-0.0807 0.46875,-0.1966 0.64844,-0.34765 0.17968,-0.15104 0.3177,-0.33724 0.41406,-0.5586 0.0964,-0.22134 0.14453,-0.47265 0.14453,-0.7539 0,-0.54687 -0.16667,-0.94531 -0.5,-1.19531 -0.33334,-0.25 -0.82292,-0.375 -1.46875,-0.375 -0.34375,0 -0.69792,0.0339 -1.0625,0.10156 -0.36458,0.0677 -0.75521,0.16928 -1.17187,0.30469 l 0,-1.1875 c 0.17708,-0.0625 0.36588,-0.11848 0.5664,-0.16797 0.20052,-0.0495 0.40104,-0.0911 0.60157,-0.125 0.20051,-0.0339 0.39973,-0.0599 0.59765,-0.0781 0.19792,-0.0182 0.38802,-0.0273 0.57031,-0.0273 0.54167,10e-6 1.01823,0.0586 1.42969,0.17578 0.41145,0.1172 0.7552,0.28516 1.03125,0.50391 0.27604,0.21875 0.48437,0.48438 0.625,0.79687 0.14062,0.31251 0.21093,0.66407 0.21094,1.05469 -10e-6,0.58334 -0.14975,1.07292 -0.44922,1.46875 -0.29948,0.39584 -0.70964,0.71094 -1.23047,0.94531 0.26562,0.0417 0.52734,0.12501 0.78516,0.25 0.2578,0.12501 0.48957,0.28516 0.69531,0.48047 0.20572,0.19532 0.37239,0.42578 0.5,0.69141 0.1276,0.26562 0.1914,0.55989 0.19141,0.88281 z"
     style=""
     id="path3090" /><path
     d="m 260.94005,-710.59979 c 2.40104,2.22397 3.60156,4.69792 3.60156,7.42187 0,0.56251 -0.0573,1.14584 -0.17187,1.75 -0.11459,0.60417 -0.3099,1.22266 -0.58594,1.85547 -0.27605,0.63281 -0.64714,1.27474 -1.11328,1.92578 -0.46615,0.65104 -1.05339,1.30469 -1.76172,1.96094 l -0.78906,-0.80469 c 1.01562,-1.00521 1.77343,-2.05469 2.27344,-3.14843 0.49999,-1.09375 0.74999,-2.23959 0.75,-3.4375 -10e-6,-2.47917 -1.00782,-4.70833 -3.02344,-6.6875 z"
     style=""
     id="path3092" /><path
     d="m 275.01036,-704.06854 c 0,0.78125 -0.0781,1.49349 -0.23437,2.13672 -0.15626,0.64323 -0.39324,1.19531 -0.71094,1.65625 -0.31771,0.46093 -0.71224,0.81771 -1.18359,1.07031 -0.47136,0.2526 -1.02475,0.3789 -1.66016,0.37891 -0.54688,-10e-6 -1.04427,-0.10287 -1.49219,-0.3086 -0.44791,-0.20573 -0.83073,-0.52213 -1.14843,-0.94922 -0.31771,-0.42708 -0.5625,-0.97135 -0.73438,-1.63281 -0.17187,-0.66145 -0.25781,-1.44531 -0.25781,-2.35156 0,-0.78125 0.0794,-1.49479 0.23828,-2.14063 0.15885,-0.64582 0.39583,-1.19921 0.71094,-1.66015 0.3151,-0.46093 0.70963,-0.8177 1.18359,-1.07032 0.47396,-0.25259 1.02604,-0.37889 1.65625,-0.3789 0.54687,10e-6 1.04427,0.10287 1.49219,0.30859 0.44791,0.20574 0.83072,0.52345 1.14844,0.95313 0.3177,0.42969 0.56249,0.97526 0.73437,1.63672 0.17187,0.66146 0.25781,1.44531 0.25781,2.35156 z m -1.375,0.0469 c 0,-0.17708 -0.007,-0.35286 -0.0195,-0.52734 -0.013,-0.17447 -0.0274,-0.34505 -0.043,-0.51172 l -4.32031,3.21094 c 0.0781,0.27083 0.17708,0.52083 0.29688,0.75 0.11979,0.22917 0.26432,0.42578 0.43359,0.58984 0.16927,0.16407 0.36198,0.29167 0.57813,0.38281 0.21614,0.0912 0.46223,0.13672 0.73828,0.13672 0.35416,0 0.67577,-0.0859 0.96484,-0.25781 0.28906,-0.17187 0.53515,-0.42708 0.73828,-0.76562 0.20312,-0.33854 0.35937,-0.75912 0.46875,-1.26172 0.10937,-0.5026 0.16406,-1.08463 0.16406,-1.7461 z m -4.67187,-0.0937 c 0,0.16147 0.001,0.32292 0.004,0.48438 0.003,0.16146 0.0117,0.31771 0.0273,0.46875 l 4.32031,-3.19531 c -0.0781,-0.26562 -0.17709,-0.50781 -0.29687,-0.72657 -0.1198,-0.21874 -0.26303,-0.40754 -0.42969,-0.5664 -0.16667,-0.15885 -0.35678,-0.28255 -0.57031,-0.3711 -0.21355,-0.0885 -0.45313,-0.1328 -0.71875,-0.13281 -0.35417,1e-5 -0.67579,0.086 -0.96485,0.25781 -0.28906,0.17189 -0.53516,0.4284 -0.73828,0.76953 -0.20313,0.34116 -0.35938,0.76303 -0.46875,1.26563 -0.10938,0.50261 -0.16406,1.08464 -0.16406,1.74609 z"
     style=""
     id="path3094" /><path
     d="m 283.82286,-704.06854 c 0,0.78125 -0.0781,1.49349 -0.23437,2.13672 -0.15626,0.64323 -0.39324,1.19531 -0.71094,1.65625 -0.31771,0.46093 -0.71224,0.81771 -1.18359,1.07031 -0.47136,0.2526 -1.02475,0.3789 -1.66016,0.37891 -0.54688,-10e-6 -1.04427,-0.10287 -1.49219,-0.3086 -0.44791,-0.20573 -0.83073,-0.52213 -1.14843,-0.94922 -0.31771,-0.42708 -0.5625,-0.97135 -0.73438,-1.63281 -0.17187,-0.66145 -0.25781,-1.44531 -0.25781,-2.35156 0,-0.78125 0.0794,-1.49479 0.23828,-2.14063 0.15885,-0.64582 0.39583,-1.19921 0.71094,-1.66015 0.3151,-0.46093 0.70963,-0.8177 1.18359,-1.07032 0.47396,-0.25259 1.02604,-0.37889 1.65625,-0.3789 0.54687,10e-6 1.04427,0.10287 1.49219,0.30859 0.44791,0.20574 0.83072,0.52345 1.14844,0.95313 0.3177,0.42969 0.56249,0.97526 0.73437,1.63672 0.17187,0.66146 0.25781,1.44531 0.25781,2.35156 z m -1.375,0.0469 c 0,-0.17708 -0.007,-0.35286 -0.0195,-0.52734 -0.013,-0.17447 -0.0274,-0.34505 -0.043,-0.51172 l -4.32031,3.21094 c 0.0781,0.27083 0.17708,0.52083 0.29688,0.75 0.11979,0.22917 0.26432,0.42578 0.43359,0.58984 0.16927,0.16407 0.36198,0.29167 0.57813,0.38281 0.21614,0.0912 0.46223,0.13672 0.73828,0.13672 0.35416,0 0.67577,-0.0859 0.96484,-0.25781 0.28906,-0.17187 0.53515,-0.42708 0.73828,-0.76562 0.20312,-0.33854 0.35937,-0.75912 0.46875,-1.26172 0.10937,-0.5026 0.16406,-1.08463 0.16406,-1.7461 z m -4.67187,-0.0937 c 0,0.16147 0.001,0.32292 0.004,0.48438 0.003,0.16146 0.0117,0.31771 0.0273,0.46875 l 4.32031,-3.19531 c -0.0781,-0.26562 -0.17709,-0.50781 -0.29687,-0.72657 -0.1198,-0.21874 -0.26303,-0.40754 -0.42969,-0.5664 -0.16667,-0.15885 -0.35678,-0.28255 -0.57031,-0.3711 -0.21355,-0.0885 -0.45313,-0.1328 -0.71875,-0.13281 -0.35417,1e-5 -0.67579,0.086 -0.96485,0.25781 -0.28906,0.17189 -0.53516,0.4284 -0.73828,0.76953 -0.20313,0.34116 -0.35938,0.76303 -0.46875,1.26563 -0.10938,0.50261 -0.16406,1.08464 -0.16406,1.74609 z"
     style=""
     id="path3096" /><path
     d="m 292.63536,-704.06854 c 0,0.78125 -0.0781,1.49349 -0.23437,2.13672 -0.15626,0.64323 -0.39324,1.19531 -0.71094,1.65625 -0.31771,0.46093 -0.71224,0.81771 -1.18359,1.07031 -0.47136,0.2526 -1.02475,0.3789 -1.66016,0.37891 -0.54688,-10e-6 -1.04427,-0.10287 -1.49219,-0.3086 -0.44791,-0.20573 -0.83073,-0.52213 -1.14843,-0.94922 -0.31771,-0.42708 -0.5625,-0.97135 -0.73438,-1.63281 -0.17187,-0.66145 -0.25781,-1.44531 -0.25781,-2.35156 0,-0.78125 0.0794,-1.49479 0.23828,-2.14063 0.15885,-0.64582 0.39583,-1.19921 0.71094,-1.66015 0.3151,-0.46093 0.70963,-0.8177 1.18359,-1.07032 0.47396,-0.25259 1.02604,-0.37889 1.65625,-0.3789 0.54687,10e-6 1.04427,0.10287 1.49219,0.30859 0.44791,0.20574 0.83072,0.52345 1.14844,0.95313 0.3177,0.42969 0.56249,0.97526 0.73437,1.63672 0.17187,0.66146 0.25781,1.44531 0.25781,2.35156 z m -1.375,0.0469 c 0,-0.17708 -0.007,-0.35286 -0.0195,-0.52734 -0.013,-0.17447 -0.0274,-0.34505 -0.043,-0.51172 l -4.32031,3.21094 c 0.0781,0.27083 0.17708,0.52083 0.29688,0.75 0.11979,0.22917 0.26432,0.42578 0.43359,0.58984 0.16927,0.16407 0.36198,0.29167 0.57813,0.38281 0.21614,0.0912 0.46223,0.13672 0.73828,0.13672 0.35416,0 0.67577,-0.0859 0.96484,-0.25781 0.28906,-0.17187 0.53515,-0.42708 0.73828,-0.76562 0.20312,-0.33854 0.35937,-0.75912 0.46875,-1.26172 0.10937,-0.5026 0.16406,-1.08463 0.16406,-1.7461 z m -4.67187,-0.0937 c 0,0.16147 0.001,0.32292 0.004,0.48438 0.003,0.16146 0.0117,0.31771 0.0273,0.46875 l 4.32031,-3.19531 c -0.0781,-0.26562 -0.17709,-0.50781 -0.29687,-0.72657 -0.1198,-0.21874 -0.26303,-0.40754 -0.42969,-0.5664 -0.16667,-0.15885 -0.35678,-0.28255 -0.57031,-0.3711 -0.21355,-0.0885 -0.45313,-0.1328 -0.71875,-0.13281 -0.35417,1e-5 -0.67579,0.086 -0.96485,0.25781 -0.28906,0.17189 -0.53516,0.4284 -0.73828,0.76953 -0.20313,0.34116 -0.35938,0.76303 -0.46875,1.26563 -0.10938,0.50261 -0.16406,1.08464 -0.16406,1.74609 z"
     style=""
     id="path3098" /><path
     d="m 301.12755,-698.96698 -6.41406,0 0,-1.26562 2.625,0 0,-7.45313 -2.44531,1.32813 -0.5,-1.15625 3.25,-1.71094 1.20312,0 0,8.99219 2.28125,0 z"
     style=""
     id="path3100" /><path
     d="m 310.02599,-698.96698 -6.72656,0 0,-1.21875 2.64062,-2.625 c 0.43229,-0.42708 0.78385,-0.79687 1.05469,-1.10937 0.27083,-0.3125 0.48177,-0.59766 0.63281,-0.85547 0.15104,-0.25781 0.2526,-0.5013 0.30469,-0.73047 0.0521,-0.22916 0.0781,-0.47656 0.0781,-0.74219 0,-0.24999 -0.0339,-0.48827 -0.10156,-0.71484 -0.0677,-0.22656 -0.17188,-0.42578 -0.3125,-0.59766 -0.14063,-0.17187 -0.32292,-0.30728 -0.54687,-0.40625 -0.22397,-0.0989 -0.49219,-0.14843 -0.80469,-0.14844 -0.4323,10e-6 -0.82552,0.0964 -1.17969,0.28907 -0.35417,0.19271 -0.67969,0.44271 -0.97656,0.75 l -0.75,-0.89844 c 0.38541,-0.40624 0.82942,-0.73176 1.33203,-0.97656 0.5026,-0.24479 1.08724,-0.36718 1.75391,-0.36719 0.45312,10e-6 0.86588,0.0677 1.23828,0.20312 0.37239,0.13543 0.694,0.33074 0.96484,0.58594 0.27083,0.25522 0.48046,0.56772 0.62891,0.9375 0.14843,0.3698 0.22265,0.78647 0.22265,1.25 0,0.39063 -0.0521,0.75261 -0.15625,1.08594 -0.10417,0.33334 -0.26172,0.66537 -0.47265,0.99609 -0.21095,0.33074 -0.47657,0.67318 -0.79688,1.02735 -0.32031,0.35417 -0.69922,0.74219 -1.13672,1.16406 l -1.85156,1.80469 4.96094,0 z"
     style=""
     id="path3102" /><path
     d="m 318.64318,-702.06854 c -10e-6,0.44792 -0.0912,0.86849 -0.27344,1.26172 -0.1823,0.39323 -0.45574,0.73698 -0.82031,1.03125 -0.36459,0.29427 -0.82293,0.52604 -1.375,0.69531 -0.55209,0.16927 -1.19532,0.2539 -1.92969,0.25391 -0.40625,-10e-6 -0.77084,-0.013 -1.09375,-0.0391 -0.32292,-0.026 -0.625,-0.0599 -0.90625,-0.10156 l 0,-1.21875 c 0.32291,0.0573 0.66406,0.10156 1.02344,0.13281 0.35937,0.0312 0.72656,0.0469 1.10156,0.0469 0.51041,0 0.94661,-0.0456 1.30859,-0.13672 0.36198,-0.0912 0.65755,-0.22266 0.88672,-0.39453 0.22916,-0.17188 0.39583,-0.38021 0.5,-0.625 0.10416,-0.24479 0.15625,-0.52083 0.15625,-0.82813 0,-0.28124 -0.0625,-0.52604 -0.1875,-0.73437 -0.125,-0.20833 -0.30078,-0.38281 -0.52734,-0.52344 -0.22657,-0.14062 -0.4974,-0.24609 -0.8125,-0.31641 -0.31511,-0.0703 -0.66016,-0.10546 -1.03516,-0.10546 l -1.16406,0 0,-1.11719 1.17969,0 c 0.30728,0 0.58723,-0.0404 0.83984,-0.1211 0.2526,-0.0807 0.46875,-0.1966 0.64844,-0.34765 0.17968,-0.15104 0.3177,-0.33724 0.41406,-0.5586 0.0963,-0.22134 0.14453,-0.47265 0.14453,-0.7539 0,-0.54687 -0.16667,-0.94531 -0.5,-1.19531 -0.33334,-0.25 -0.82292,-0.375 -1.46875,-0.375 -0.34375,0 -0.69792,0.0339 -1.0625,0.10156 -0.36458,0.0677 -0.75521,0.16928 -1.17187,0.30469 l 0,-1.1875 c 0.17708,-0.0625 0.36588,-0.11848 0.5664,-0.16797 0.20052,-0.0495 0.40104,-0.0911 0.60157,-0.125 0.20051,-0.0339 0.39973,-0.0599 0.59765,-0.0781 0.19792,-0.0182 0.38802,-0.0273 0.57031,-0.0273 0.54167,10e-6 1.01823,0.0586 1.42969,0.17578 0.41145,0.1172 0.7552,0.28516 1.03125,0.50391 0.27604,0.21875 0.48437,0.48438 0.625,0.79687 0.14062,0.31251 0.21093,0.66407 0.21094,1.05469 -10e-6,0.58334 -0.14975,1.07292 -0.44922,1.46875 -0.29948,0.39584 -0.70964,0.71094 -1.23047,0.94531 0.26562,0.0417 0.52734,0.12501 0.78516,0.25 0.2578,0.12501 0.48957,0.28516 0.69531,0.48047 0.20572,0.19532 0.37239,0.42578 0.5,0.69141 0.1276,0.26562 0.1914,0.55989 0.19141,0.88281 z"
     style=""
     id="path3104" /></g>
</g></svg>