<svg version="1.1" viewBox="0 0 362.62 119.65" xmlns="http://www.w3.org/2000/svg">
	<path d="m13.012 11.342v70.863h3.5234v-70.863h-3.5234zm5.2871 0v70.863h1.7617v-70.863h-1.7617zm5.2871 0v70.863h5.2871v-70.863h-5.2871zm8.8242 0v70.863h7.0508v-70.863h-7.0508zm8.8125 0v70.863h1.7637v-70.863h-1.7637zm10.576 0v70.863h3.5254v-70.863h-3.5254zm7.0488 0v70.863h3.5254v-70.863h-3.5254zm5.2891 0v70.863h3.5234v-70.863h-3.5234zm7.0488 0v70.863h1.7637v-70.863h-1.7637zm3.5254 0v70.863h7.0508v-70.863h-7.0508zm8.8125 0v70.863h1.7617v-70.863h-1.7617zm7.0508 0v70.863h3.5234v-70.863h-3.5234zm7.0625 0v70.863h3.5234v-70.863h-3.5234zm5.2871 0v70.863h3.5254v-70.863h-3.5254zm7.0488 0v70.863h5.2891v-70.863h-5.2891zm7.0508 0v70.863h3.5254v-70.863h-3.5254zm5.2871 0v70.863h5.2871v-70.863h-5.2871zm7.0508 0v70.863h1.7617v-70.863h-1.7617zm3.5254 0v70.863h5.2871v-70.863h-5.2871zm7.0488 0v70.863h3.5254v-70.863h-3.5254zm8.8125 0v70.863h1.7637v-70.863h-1.7637zm8.8262 0v70.863h1.7617v-70.863h-1.7617zm3.5234 0v70.863h3.5254v-70.863h-3.5254zm7.0508 0v70.863h3.5254v-70.863h-3.5254zm5.2871 0v70.863h3.5254v-70.863h-3.5254zm5.2871 0v70.863h7.0508v-70.863h-7.0508zm8.8125 0v70.863h1.7637v-70.863h-1.7637zm5.2891 0v70.863h1.7617v-70.863h-1.7617zm5.2871 0v70.863h3.5254v-70.863h-3.5254zm8.8125 0v70.863h3.5254v-70.863h-3.5254zm5.2871 0v70.863h3.5254v-70.863h-3.5254zm8.8125 0v70.863h3.5254v-70.863h-3.5254zm5.3008 0v70.863h1.7617v-70.863h-1.7617zm5.2871 0v70.863h1.7617v-70.863h-1.7617zm5.2871 0v70.863h3.5254v-70.863h-3.5254zm8.8125 0v70.863h3.5254v-70.863h-3.5254zm5.2871 0v70.863h3.5254v-70.863h-3.5254zm7.0508 0v70.863h3.5254v-70.863h-3.5254zm7.0488 0v70.863h3.5254v-70.863h-3.5254zm7.0508 0v70.863h3.5254v-70.863h-3.5254zm5.2871 0v70.863h3.5254v-70.863h-3.5254zm7.0508 0v70.863h5.2871v-70.863h-5.2871zm7.0625 0v70.863h3.5254v-70.863h-3.5254zm5.2871 0v70.863h5.2871v-70.863h-5.2871zm7.0508 0v70.863h7.0488v-70.863h-7.0488zm8.8125 0v70.863h3.5234v-70.863h-3.5234zm5.2871 0v70.863h3.5254v-70.863h-3.5254zm5.3047 0v70.863h3.5254v-70.863h-3.5254zm8.8262 0v70.863h5.2871v-70.863h-5.2871zm7.0488 0v70.863h1.7637v-70.863h-1.7637zm3.5254 0v70.863h3.5254v-70.863h-3.5254zm-297.98 0.001953v70.863h5.2871v-70.863h-5.2871z"/>
	<path d="m18.871 86.867c-0.83334 0.77475-1.5423 1.556-2.125 2.3438-0.58269 0.78776-1.0514 1.5755-1.4062 2.3633-0.35482 0.78778-0.61198 1.5749-0.77148 2.3594-0.15951 0.78451-0.23828 1.5697-0.23828 2.3574-4e-6 3.3659 1.5006 6.4388 4.502 9.2188l1.0254-1.0449c-1.25-1.237-2.194-2.5521-2.832-3.9453-0.63802-1.3932-0.95704-2.8451-0.95703-4.3555-5e-6 -3.0338 1.263-5.7975 3.7891-8.291zm29.141 0-1.0254 1.0449c2.5195 2.474 3.7793 5.2604 3.7793 8.3594-6e-6 1.4974-0.31251 2.9297-0.9375 4.2969-0.625 1.3672-1.5723 2.679-2.8418 3.9355l0.98633 1.0059c0.88541-0.82032 1.6185-1.6374 2.2012-2.4512 0.58268-0.8138 1.0475-1.6152 1.3926-2.4062 0.34504-0.79101 0.58918-1.5651 0.73242-2.3203 0.14322-0.7552 0.21484-1.4844 0.21484-2.1875-9e-6 -3.4049-1.5007-6.4974-4.502-9.2773zm169.14 0c-0.83333 0.77475-1.5423 1.556-2.125 2.3438-0.58268 0.78776-1.0514 1.5755-1.4062 2.3633-0.35481 0.78778-0.61198 1.5749-0.77148 2.3594-0.15951 0.78451-0.23828 1.5697-0.23828 2.3574 0 3.3659 1.5007 6.4388 4.502 9.2188l1.0254-1.0449c-1.25-1.237-2.194-2.5521-2.832-3.9453-0.63803-1.3932-0.95703-2.8451-0.95703-4.3555 0-3.0338 1.263-5.7975 3.7891-8.291zm51.172 0-1.0254 1.0449c2.5195 2.474 3.7793 5.2604 3.7793 8.3594-2e-5 1.4974-0.31252 2.9297-0.9375 4.2969-0.62502 1.3672-1.5723 2.679-2.8418 3.9355l0.98632 1.0059c0.88541-0.82032 1.6185-1.6374 2.2012-2.4512 0.58267-0.8138 1.0475-1.6152 1.3926-2.4062 0.34505-0.79101 0.58919-1.5651 0.73243-2.3203 0.14321-0.7552 0.21485-1.4844 0.21485-2.1875 0-3.4049-1.5007-6.4974-4.502-9.2773zm-240.31 1.6016c-0.78776 1.2e-5 -1.4779 0.15888-2.0703 0.47461-0.59245 0.31578-1.0866 0.76172-1.4805 1.3379-0.39388 0.57618-0.69011 1.2669-0.88867 2.0742-0.19856 0.8073-0.29688 1.6992-0.29688 2.6758-1e-6 1.1328 0.10742 2.1126 0.32227 2.9394 0.21484 0.82682 0.52083 1.5072 0.91797 2.041 0.39713 0.53387 0.87565 0.93034 1.4355 1.1875 0.55989 0.25717 1.1816 0.38477 1.8652 0.38478 0.79426-1e-5 1.485-0.15691 2.0742-0.47266 0.58918-0.31575 1.0833-0.76173 1.4805-1.3379 0.39712-0.57618 0.69335-1.2663 0.88867-2.0703 0.19531-0.80404 0.29296-1.6953 0.29297-2.6719-1.1e-5 -1.1328-0.10744-2.1126-0.32226-2.9394-0.21485-0.82682-0.52084-1.5078-0.91797-2.0449-0.39714-0.5371-0.87566-0.93424-1.4355-1.1914-0.5599-0.25715-1.1816-0.3867-1.8652-0.38671zm32.832 0c-0.65105 1.2e-5 -1.2468 0.11075-1.7871 0.33202-0.54037 0.22138-1.0052 0.52345-1.3926 0.9043-0.38737 0.38088-0.6875 0.82749-0.90234 1.3418-0.21484 0.51432-0.32227 1.0677-0.32227 1.6601-1e-6 0.54689 0.08138 1.0541 0.24414 1.5195 0.16276 0.4655 0.4043 0.86654 0.72656 1.2051 0.32226 0.33855 0.72851 0.60222 1.2168 0.79101 0.48828 0.18884 1.0547 0.28321 1.6992 0.28321 0.62499 0 1.2044-0.07225 1.7383-0.21875 0.53385-0.14648 1.0059-0.34115 1.416-0.58204l-0.03906 0.40039c-0.05209 0.60548-0.18556 1.1452-0.40039 1.6172-0.21485 0.47201-0.5267 0.8724-0.93359 1.2012-0.40691 0.32878-0.91537 0.57682-1.5273 0.7461-0.61198 0.16928-1.3379 0.2539-2.1777 0.2539h-1.1816v1.4844h1.0645c1.1328 0 2.1322-0.13671 2.998-0.41015 0.86588-0.27343 1.5918-0.69726 2.1777-1.2734 0.58593-0.57616 1.0286-1.3118 1.3281-2.207 0.29947-0.89518 0.44921-1.9655 0.44922-3.209-1e-5 -1.0612-0.11069-1.9629-0.33203-2.7051-0.22136-0.74218-0.52735-1.345-0.91797-1.8106-0.39063-0.46548-0.85548-0.80338-1.3926-1.0117-0.53712-0.20838-1.1204-0.31249-1.752-0.3125zm22.246 0c-0.78775 1.2e-5 -1.4779 0.15888-2.0703 0.47461-0.59244 0.31578-1.0866 0.76172-1.4805 1.3379-0.39389 0.57618-0.69011 1.2669-0.88868 2.0742-0.1986 0.8073-0.29688 1.6992-0.29688 2.6758 0 1.1328 0.10738 2.1126 0.32226 2.9394 0.21485 0.82682 0.52084 1.5072 0.91797 2.041 0.39713 0.53387 0.87566 0.93034 1.4356 1.1875 0.5599 0.25717 1.1816 0.38477 1.8652 0.38478 0.79426-1e-5 1.485-0.15691 2.0742-0.47266 0.58919-0.31575 1.0833-0.76173 1.4805-1.3379 0.39712-0.57618 0.69335-1.2663 0.88868-2.0703 0.19534-0.80404 0.29298-1.6953 0.29298-2.6719 0-1.1328-0.1075-2.1126-0.32228-2.9394-0.21485-0.82682-0.52084-1.5078-0.91796-2.0449-0.39715-0.5371-0.87566-0.93424-1.4355-1.1914-0.5599-0.25715-1.1816-0.3867-1.8652-0.38671zm21.777 0c-0.83334 1.2e-5 -1.5651 0.153-2.1934 0.45899-0.62827 0.306-1.1823 0.7129-1.6641 1.2207l0.9375 1.123c0.37109-0.38411 0.77799-0.69661 1.2207-0.9375 0.44272-0.24084 0.93424-0.36132 1.4746-0.36134 0.39062 1.3e-5 0.7259 0.06188 1.0059 0.18555 0.27994 0.12375 0.5078 0.29298 0.68359 0.50781 0.17577 0.21485 0.306 0.46485 0.39062 0.74805 0.0846 0.28321 0.12696 0.58009 0.12696 0.89258 0 0.33204-0.0325 0.64129-0.0976 0.92774-0.0651 0.28646-0.19206 0.5918-0.38086 0.91406-0.1888 0.32226-0.45248 0.67774-0.79102 1.0684-0.33855 0.39062-0.778 0.85286-1.3184 1.3867l-3.3008 3.2812v1.5234h8.4082v-1.6211h-6.2012l2.3145-2.2559c0.54688-0.52734 1.0195-1.0124 1.4199-1.4551 0.40038-0.44271 0.73241-0.86979 0.9961-1.2832 0.26366-0.4134 0.46158-0.82941 0.5918-1.2461 0.13018-0.41666 0.19531-0.86914 0.19531-1.3574 0-0.57941-0.0937-1.1002-0.2793-1.5625-0.18556-0.46222-0.44663-0.85285-0.78516-1.1719-0.33855-0.319-0.74154-0.56314-1.207-0.73242-0.4655-0.16928-0.98047-0.25389-1.5469-0.2539zm10.537 0c-0.22786 0-0.4655 0.0125-0.7129 0.03512-0.2474 0.02275-0.4974 0.05525-0.74804 0.09762-0.25066 0.04238-0.50131 0.09437-0.75196 0.15625s-0.48567 0.13086-0.70702 0.20899v1.4844c0.52082-0.16926 1.0091-0.29624 1.4648-0.38086 0.45573-0.08463 0.89844-0.12695 1.3281-0.12695 0.80729 0 1.4193 0.15625 1.8359 0.46875 0.41666 0.3125 0.625 0.81055 0.625 1.4941 0 0.35156-0.0611 0.66669-0.18164 0.94336-0.1205 0.2767-0.29298 0.50846-0.51758 0.69726-0.22461 0.18881-0.4948 0.33468-0.81055 0.43555-0.31576 0.10088-0.66472 0.15039-1.0488 0.15039h-1.4746v1.3965h1.4551c0.46875 0 0.89909 0.04488 1.293 0.13281 0.39387 0.08788 0.73241 0.21875 1.0156 0.39453 0.2832 0.17579 0.5039 0.39389 0.66015 0.6543 0.15625 0.26041 0.23438 0.56641 0.23438 0.91796 0 0.38412-0.0651 0.72918-0.19532 1.0352-0.13021 0.30599-0.33855 0.5664-0.625 0.78125-0.28646 0.21484-0.6569 0.38014-1.1094 0.49414-0.45248 0.11388-0.99675 0.16993-1.6348 0.16993-0.46875 0-0.92774-0.0196-1.377-0.0586-0.44923-0.039-0.87567-0.09437-1.2793-0.16601v1.5234c0.35156 0.0521 0.72916 0.0945 1.1328 0.12694 0.40364 0.0326 0.85937 0.0489 1.3672 0.0489 0.91796-1e-5 1.722-0.10488 2.4121-0.31641 0.69009-0.21159 1.263-0.5013 1.7188-0.86914 0.45571-0.36784 0.79751-0.79752 1.0254-1.2891 0.2278-0.49154 0.34178-1.0182 0.3418-1.5781-2e-5 -0.40365-0.0807-0.77149-0.24024-1.1035-0.15951-0.33204-0.36785-0.61914-0.625-0.86329-0.25718-0.24414-0.54689-0.4453-0.86914-0.60156-0.32227-0.15624-0.64845-0.26038-0.98047-0.3125 0.65103-0.29296 1.1628-0.68684 1.5371-1.1816 0.37434-0.49479 0.56249-1.1068 0.5625-1.8359-1e-5 -0.48828-0.0879-0.92772-0.26368-1.3184-0.17578-0.39061-0.4362-0.72265-0.78125-0.99609-0.34506-0.27344-0.77475-0.48241-1.2891-0.62891-0.51431-0.14648-1.11-0.22069-1.7871-0.2207zm55.771 0c-0.6966 1.2e-5 -1.3021 0.0905-1.8164 0.26952-0.51433 0.17905-0.94337 0.41734-1.2852 0.7168-0.3418 0.29949-0.59635 0.64129-0.76562 1.0254-0.16928 0.38412-0.2539 0.78126-0.2539 1.1914 0 0.67058 0.19206 1.2656 0.57617 1.7832 0.38412 0.51759 0.99284 0.98699 1.8262 1.4102-0.91145 0.46224-1.5853 0.97656-2.0215 1.543-0.43619 0.56641-0.6543 1.2402-0.6543 2.0215 0 0.46224 0.0911 0.88541 0.27344 1.2695 0.18229 0.38412 0.45247 0.71614 0.81055 0.9961 0.35807 0.27995 0.80142 0.49805 1.332 0.6543s1.1452 0.23436 1.8418 0.23437c0.6315-1e-5 1.2174-0.0749 1.7578-0.22461 0.54035-0.14974 1.0091-0.36784 1.4062-0.6543 0.39712-0.28646 0.70637-0.63867 0.92773-1.0586 0.22142-0.41991 0.33202-0.90105 0.33203-1.4414-1e-5 -0.42318-0.0677-0.80729-0.20118-1.1523-0.13347-0.34505-0.31965-0.65755-0.56053-0.9375-0.24089-0.27995-0.5241-0.53385-0.84962-0.76172-0.32553-0.22786-0.6771-0.43619-1.0547-0.625 0.76171-0.39061 1.3483-0.84635 1.7617-1.3672 0.4134-0.52082 0.62109-1.1524 0.6211-1.8945-1e-5 -0.45572-0.0846-0.86914-0.25391-1.2402-0.16928-0.37109-0.42319-0.68684-0.76172-0.94726-0.33855-0.26041-0.75782-0.45962-1.2559-0.59961-0.49805-0.13996-1.0749-0.21092-1.7324-0.21094zm10.84 0c-0.65105 1.2e-5 -1.2468 0.11075-1.7871 0.33202-0.54036 0.22138-1.0052 0.52345-1.3926 0.9043-0.38738 0.38088-0.6875 0.82749-0.90235 1.3418-0.21489 0.51432-0.32226 1.0677-0.32226 1.6601 0 0.54689 0.0814 1.0541 0.24413 1.5195 0.16277 0.4655 0.4043 0.86654 0.72657 1.2051 0.32226 0.33855 0.72851 0.60222 1.2168 0.79101 0.48827 0.18884 1.0547 0.28321 1.6992 0.28321 0.625 0 1.2044-0.07225 1.7383-0.21875 0.53385-0.14648 1.0058-0.34115 1.416-0.58204l-0.039 0.40039c-0.0521 0.60548-0.18555 1.1452-0.40039 1.6172-0.21485 0.47201-0.5267 0.8724-0.93359 1.2012-0.40691 0.32878-0.91537 0.57682-1.5274 0.7461s-1.3379 0.2539-2.1777 0.2539h-1.1816v1.4844h1.0644c1.1328 0 2.1322-0.13671 2.998-0.41015 0.86587-0.27343 1.5918-0.69726 2.1777-1.2734 0.58592-0.57616 1.0286-1.3118 1.3281-2.207 0.29946-0.89518 0.4492-1.9655 0.44921-3.209-1e-5 -1.0612-0.11062-1.9629-0.33202-2.7051-0.22136-0.74218-0.52736-1.345-0.91798-1.8106-0.39062-0.46548-0.85547-0.80338-1.3926-1.0117-0.53711-0.20838-1.1204-0.31249-1.752-0.3125zm11.23 0c-0.78775 1.2e-5 -1.4779 0.15888-2.0703 0.47461-0.59244 0.31578-1.0866 0.76172-1.4805 1.3379-0.39388 0.57618-0.69011 1.2669-0.88867 2.0742-0.1986 0.8073-0.29688 1.6992-0.29688 2.6758 0 1.1328 0.10738 2.1126 0.32227 2.9394 0.21485 0.82682 0.52083 1.5072 0.91797 2.041 0.39713 0.53387 0.87566 0.93034 1.4356 1.1875 0.5599 0.25717 1.1816 0.38477 1.8652 0.38478 0.79426-1e-5 1.485-0.15691 2.0742-0.47266 0.58919-0.31575 1.0833-0.76173 1.4805-1.3379 0.39713-0.57618 0.69335-1.2663 0.88868-2.0703 0.19534-0.80404 0.29297-1.6953 0.29297-2.6719 0-1.1328-0.10737-2.1126-0.32227-2.9394-0.21485-0.82682-0.52084-1.5078-0.91796-2.0449-0.39715-0.5371-0.87567-0.93424-1.4356-1.1914-0.5599-0.25715-1.1816-0.3867-1.8652-0.38671zm10.283 0c-0.22786 0-0.4655 0.0125-0.7129 0.03512-0.2474 0.02275-0.4974 0.05525-0.74804 0.09762-0.25066 0.04238-0.50131 0.09437-0.75196 0.15625s-0.48567 0.13086-0.70702 0.20899v1.4844c0.52082-0.16926 1.0091-0.29624 1.4648-0.38086 0.45573-0.08463 0.89844-0.12695 1.3281-0.12695 0.80729 0 1.4193 0.15625 1.8359 0.46875 0.41666 0.3125 0.625 0.81055 0.625 1.4941 0 0.35156-0.0611 0.66669-0.18164 0.94336-0.1205 0.2767-0.29298 0.50846-0.51758 0.69726-0.22461 0.18881-0.4948 0.33468-0.81055 0.43555-0.31576 0.10088-0.66472 0.15039-1.0488 0.15039h-1.4746v1.3965h1.4551c0.46875 0 0.89909 0.04488 1.293 0.13281 0.39387 0.08788 0.73241 0.21875 1.0156 0.39453 0.2832 0.17579 0.5039 0.39389 0.66015 0.6543 0.15625 0.26041 0.23438 0.56641 0.23438 0.91796 0 0.38412-0.0651 0.72918-0.19532 1.0352-0.13021 0.30599-0.33855 0.5664-0.625 0.78125-0.28646 0.21484-0.6569 0.38014-1.1094 0.49414-0.45248 0.11388-0.99675 0.16993-1.6348 0.16993-0.46875 0-0.92774-0.0196-1.377-0.0586-0.44923-0.039-0.87567-0.09437-1.2793-0.16601v1.5234c0.35156 0.0521 0.72916 0.0945 1.1328 0.12694 0.40364 0.0326 0.85937 0.0489 1.3672 0.0489 0.91796-1e-5 1.722-0.10488 2.4121-0.31641 0.69009-0.21159 1.263-0.5013 1.7188-0.86914 0.45571-0.36784 0.79751-0.79752 1.0254-1.2891 0.2278-0.49154 0.34178-1.0182 0.3418-1.5781-2e-5 -0.40365-0.0807-0.77149-0.24024-1.1035-0.15951-0.33204-0.36785-0.61914-0.625-0.86329-0.25718-0.24414-0.54689-0.4453-0.86914-0.60156-0.32227-0.15624-0.64845-0.26038-0.98047-0.3125 0.65103-0.29296 1.1628-0.68684 1.5371-1.1816 0.37434-0.49479 0.56249-1.1068 0.5625-1.8359-1e-5 -0.48828-0.0879-0.92772-0.26368-1.3184-0.17578-0.39061-0.4362-0.72265-0.78125-0.99609-0.34506-0.27344-0.77475-0.48241-1.2891-0.62891-0.51431-0.14648-1.11-0.22069-1.7871-0.2207zm22.031 0c-0.22786 0-0.4655 0.0125-0.7129 0.03512-0.2474 0.02275-0.4974 0.05525-0.74804 0.09762-0.25066 0.04238-0.50131 0.09437-0.75196 0.15625s-0.48567 0.13086-0.70702 0.20899v1.4844c0.52082-0.16926 1.0091-0.29624 1.4648-0.38086 0.45573-0.08463 0.89844-0.12695 1.3281-0.12695 0.80729 0 1.4193 0.15625 1.8359 0.46875 0.41666 0.3125 0.625 0.81055 0.625 1.4941 0 0.35156-0.0611 0.66669-0.18164 0.94336-0.1205 0.2767-0.29298 0.50846-0.51758 0.69726-0.22461 0.18881-0.4948 0.33468-0.81055 0.43555-0.31576 0.10088-0.66472 0.15039-1.0488 0.15039h-1.4746v1.3965h1.4551c0.46875 0 0.89909 0.04488 1.293 0.13281 0.39387 0.08788 0.73241 0.21875 1.0156 0.39453 0.2832 0.17579 0.5039 0.39389 0.66015 0.6543 0.15625 0.26041 0.23438 0.56641 0.23438 0.91796 0 0.38412-0.0651 0.72918-0.19532 1.0352-0.13021 0.30599-0.33855 0.5664-0.625 0.78125-0.28646 0.21484-0.6569 0.38014-1.1094 0.49414-0.45248 0.11388-0.99675 0.16993-1.6348 0.16993-0.46875 0-0.92774-0.0196-1.377-0.0586-0.44923-0.039-0.87567-0.09437-1.2793-0.16601v1.5234c0.35156 0.0521 0.72916 0.0945 1.1328 0.12694 0.40364 0.0326 0.85937 0.0489 1.3672 0.0489 0.91796-1e-5 1.722-0.10488 2.4121-0.31641 0.69009-0.21159 1.263-0.5013 1.7188-0.86914 0.45571-0.36784 0.79751-0.79752 1.0254-1.2891 0.2278-0.49154 0.34178-1.0182 0.3418-1.5781-2e-5 -0.40365-0.0807-0.77149-0.24024-1.1035-0.15951-0.33204-0.36785-0.61914-0.625-0.86329-0.25718-0.24414-0.54689-0.4453-0.86914-0.60156-0.32227-0.15624-0.64845-0.26038-0.98047-0.3125 0.65103-0.29296 1.1628-0.68684 1.5371-1.1816 0.37434-0.49479 0.56249-1.1068 0.5625-1.8359-1e-5 -0.48828-0.0879-0.92772-0.26368-1.3184-0.17578-0.39061-0.4362-0.72265-0.78125-0.99609-0.34506-0.27344-0.77475-0.48241-1.2891-0.62891-0.51431-0.14648-1.11-0.22069-1.7871-0.2207zm22.764 0c-0.78775 1.2e-5 -1.4779 0.15888-2.0703 0.47461-0.59244 0.31578-1.0866 0.76172-1.4805 1.3379-0.39389 0.57618-0.69011 1.2669-0.88868 2.0742-0.1986 0.8073-0.29687 1.6992-0.29687 2.6758 0 1.1328 0.10737 2.1126 0.32226 2.9394 0.21485 0.82682 0.52084 1.5072 0.91798 2.041 0.39712 0.53387 0.87566 0.93034 1.4356 1.1875 0.5599 0.25717 1.1816 0.38477 1.8652 0.38478 0.79426-1e-5 1.485-0.15691 2.0742-0.47266 0.58918-0.31575 1.0833-0.76173 1.4805-1.3379 0.39712-0.57618 0.69335-1.2663 0.88867-2.0703 0.19534-0.80404 0.29298-1.6953 0.29298-2.6719 0-1.1328-0.10738-2.1126-0.32228-2.9394-0.21485-0.82682-0.52083-1.5078-0.91796-2.0449-0.39715-0.5371-0.87566-0.93424-1.4356-1.1914-0.5599-0.25715-1.1816-0.3867-1.8652-0.38671zm10.283 0c-0.22787 0-0.4655 0.0125-0.7129 0.03512-0.2474 0.02275-0.4974 0.05525-0.74804 0.09762-0.25066 0.04238-0.50131 0.09437-0.75196 0.15625s-0.48568 0.13086-0.70703 0.20899v1.4844c0.52083-0.16926 1.0091-0.29624 1.4648-0.38086 0.45572-0.08463 0.89844-0.12695 1.3281-0.12695 0.80729 0 1.4193 0.15625 1.8359 0.46875 0.41666 0.3125 0.625 0.81055 0.625 1.4941 0 0.35156-0.0611 0.66669-0.18164 0.94336-0.1205 0.2767-0.29297 0.50846-0.51757 0.69726-0.22461 0.18881-0.4948 0.33468-0.81055 0.43555-0.31576 0.10088-0.66473 0.15039-1.0488 0.15039h-1.4746v1.3965h1.4551c0.46875 0 0.89908 0.04488 1.293 0.13281 0.39388 0.08788 0.73241 0.21875 1.0156 0.39453 0.2832 0.17579 0.5039 0.39389 0.66015 0.6543 0.15625 0.26041 0.23437 0.56641 0.23437 0.91796 0 0.38412-0.0651 0.72918-0.19531 1.0352-0.13021 0.30599-0.33855 0.5664-0.625 0.78125-0.28646 0.21484-0.6569 0.38014-1.1094 0.49414-0.45247 0.11388-0.99675 0.16993-1.6348 0.16993-0.46875 0-0.92774-0.0196-1.377-0.0586-0.44922-0.039-0.87566-0.09437-1.2793-0.16601v1.5234c0.35156 0.0521 0.72916 0.0945 1.1328 0.12694 0.40364 0.0326 0.85938 0.0489 1.3672 0.0489 0.91796-1e-5 1.722-0.10488 2.4121-0.31641 0.69009-0.21159 1.263-0.5013 1.7188-0.86914 0.45572-0.36784 0.79752-0.79752 1.0254-1.2891 0.2278-0.49154 0.34179-1.0182 0.3418-1.5781-1e-5 -0.40365-0.0808-0.77149-0.24024-1.1035-0.15951-0.33204-0.36785-0.61914-0.625-0.86329-0.25717-0.24414-0.54688-0.4453-0.86913-0.60156-0.32228-0.15624-0.64845-0.26038-0.98048-0.3125 0.65104-0.29296 1.1628-0.68684 1.5371-1.1816 0.37434-0.49479 0.56249-1.1068 0.5625-1.8359-1e-5 -0.48828-0.0879-0.92772-0.26367-1.3184-0.17579-0.39061-0.4362-0.72265-0.78125-0.99609-0.34506-0.27344-0.77475-0.48241-1.2891-0.62891-0.51432-0.14648-1.11-0.22069-1.7871-0.2207zm22.764 0c-0.78775 1.2e-5 -1.4779 0.15888-2.0703 0.47461-0.59244 0.31578-1.0866 0.76172-1.4805 1.3379-0.39388 0.57618-0.69011 1.2669-0.88867 2.0742-0.1986 0.8073-0.29688 1.6992-0.29688 2.6758 0 1.1328 0.10738 2.1126 0.32227 2.9394 0.21485 0.82682 0.52083 1.5072 0.91797 2.041 0.39713 0.53387 0.87566 0.93034 1.4356 1.1875 0.5599 0.25717 1.1816 0.38477 1.8652 0.38478 0.79426-1e-5 1.485-0.15691 2.0742-0.47266 0.58919-0.31575 1.0833-0.76173 1.4805-1.3379 0.39713-0.57618 0.69335-1.2663 0.88868-2.0703 0.19534-0.80404 0.29297-1.6953 0.29297-2.6719 0-1.1328-0.1075-2.1126-0.32227-2.9394-0.21485-0.82682-0.52084-1.5078-0.91796-2.0449-0.39715-0.5371-0.87567-0.93424-1.4356-1.1914-0.5599-0.25715-1.1816-0.3867-1.8652-0.38671zm11.016 0c-0.78775 1.2e-5 -1.4779 0.15888-2.0703 0.47461-0.59244 0.31578-1.0866 0.76172-1.4805 1.3379-0.39389 0.57618-0.69011 1.2669-0.88868 2.0742-0.1986 0.8073-0.29687 1.6992-0.29687 2.6758 0 1.1328 0.10737 2.1126 0.32226 2.9394 0.21485 0.82682 0.52084 1.5072 0.91798 2.041 0.39712 0.53387 0.87566 0.93034 1.4356 1.1875 0.5599 0.25717 1.1816 0.38477 1.8652 0.38478 0.79426-1e-5 1.485-0.15691 2.0742-0.47266 0.58918-0.31575 1.0833-0.76173 1.4805-1.3379 0.39712-0.57618 0.69335-1.2663 0.88867-2.0703 0.19534-0.80404 0.29298-1.6953 0.29298-2.6719 0-1.1328-0.1075-2.1126-0.32228-2.9394-0.21485-0.82682-0.52083-1.5078-0.91796-2.0449-0.39715-0.5371-0.87566-0.93424-1.4356-1.1914-0.5599-0.25715-1.1816-0.3867-1.8652-0.38671zm11.016 0c-0.78775 1.2e-5 -1.4779 0.15888-2.0703 0.47461-0.59244 0.31578-1.0866 0.76172-1.4805 1.3379-0.39388 0.57618-0.69011 1.2669-0.88867 2.0742-0.1986 0.8073-0.29688 1.6992-0.29688 2.6758 0 1.1328 0.10738 2.1126 0.32227 2.9394 0.21485 0.82682 0.52083 1.5072 0.91797 2.041 0.39713 0.53387 0.87566 0.93034 1.4356 1.1875 0.5599 0.25717 1.1816 0.38477 1.8652 0.38478 0.79426-1e-5 1.485-0.15691 2.0742-0.47266 0.58919-0.31575 1.0833-0.76173 1.4805-1.3379 0.39713-0.57618 0.69335-1.2663 0.88868-2.0703 0.19534-0.80404 0.29297-1.6953 0.29297-2.6719 0-1.1328-0.1075-2.1126-0.32227-2.9394-0.21485-0.82682-0.52084-1.5078-0.91796-2.0449-0.39715-0.5371-0.87567-0.93424-1.4356-1.1914-0.5599-0.25715-1.1816-0.3867-1.8652-0.38671zm21.777 0c-0.83334 1.2e-5 -1.5651 0.153-2.1934 0.45899-0.62827 0.306-1.1823 0.7129-1.6641 1.2207l0.9375 1.123c0.37109-0.38411 0.77799-0.69661 1.2207-0.9375 0.44272-0.24084 0.93424-0.36132 1.4746-0.36134 0.39062 1.3e-5 0.7259 0.06188 1.0059 0.18555 0.27994 0.12375 0.5078 0.29298 0.68359 0.50781 0.17577 0.21485 0.306 0.46485 0.39062 0.74805 0.0846 0.28321 0.12696 0.58009 0.12696 0.89258 0 0.33204-0.0325 0.64129-0.0976 0.92774-0.0651 0.28646-0.19206 0.5918-0.38086 0.91406-0.1888 0.32226-0.45248 0.67774-0.79102 1.0684-0.33855 0.39062-0.778 0.85286-1.3184 1.3867l-3.3008 3.2812v1.5234h8.4082v-1.6211h-6.2012l2.3145-2.2559c0.54688-0.52734 1.0195-1.0124 1.4199-1.4551 0.40038-0.44271 0.73241-0.86979 0.9961-1.2832 0.26366-0.4134 0.46158-0.82941 0.5918-1.2461 0.13018-0.41666 0.19531-0.86914 0.19531-1.3574 0-0.57941-0.0937-1.1002-0.2793-1.5625-0.18556-0.46222-0.44663-0.85285-0.78516-1.1719-0.33855-0.319-0.74154-0.56314-1.207-0.73242-0.4655-0.16928-0.98047-0.25389-1.5469-0.2539zm10.537 0c-0.22786 0-0.4655 0.0125-0.7129 0.03512-0.2474 0.02275-0.4974 0.05525-0.74804 0.09762-0.25066 0.04238-0.50131 0.09437-0.75196 0.15625s-0.48567 0.13086-0.70702 0.20899v1.4844c0.52082-0.16926 1.0091-0.29624 1.4648-0.38086 0.45573-0.08463 0.89844-0.12695 1.3281-0.12695 0.80729 0 1.4193 0.15625 1.8359 0.46875 0.41666 0.3125 0.625 0.81055 0.625 1.4941 0 0.35156-0.0612 0.66669-0.18164 0.94336-0.1205 0.2767-0.29298 0.50846-0.51758 0.69726-0.22461 0.18881-0.4948 0.33468-0.81055 0.43555-0.31576 0.10088-0.66472 0.15039-1.0488 0.15039h-1.4746v1.3965h1.4551c0.46875 0 0.89909 0.04488 1.293 0.13281 0.39387 0.08788 0.73241 0.21875 1.0156 0.39453 0.2832 0.17579 0.5039 0.39389 0.66015 0.6543 0.15625 0.26041 0.23438 0.56641 0.23438 0.91796 0 0.38412-0.0651 0.72918-0.19532 1.0352-0.13021 0.30599-0.33855 0.5664-0.625 0.78125-0.28646 0.21484-0.6569 0.38014-1.1094 0.49414-0.45248 0.11388-0.99675 0.16993-1.6348 0.16993-0.46875 0-0.92774-0.0196-1.377-0.0586-0.44923-0.039-0.87567-0.09437-1.2793-0.16601v1.5234c0.35156 0.0521 0.72916 0.0945 1.1328 0.12694 0.40364 0.0326 0.85937 0.0489 1.3672 0.0489 0.91796-1e-5 1.722-0.10488 2.4121-0.31641 0.69009-0.21159 1.263-0.5013 1.7188-0.86914 0.45571-0.36784 0.79751-0.79752 1.0254-1.2891 0.2278-0.49154 0.34178-1.0182 0.3418-1.5781-2e-5 -0.40365-0.0807-0.77149-0.24024-1.1035-0.15951-0.33204-0.36785-0.61914-0.625-0.86329-0.25718-0.24414-0.54689-0.4453-0.86914-0.60156-0.32227-0.15624-0.64845-0.26038-0.98047-0.3125 0.65103-0.29296 1.1628-0.68684 1.5371-1.1816 0.37434-0.49479 0.56249-1.1068 0.5625-1.8359-1e-5 -0.48828-0.0879-0.92772-0.26368-1.3184-0.17578-0.39061-0.4362-0.72265-0.78125-0.99609-0.34506-0.27344-0.77475-0.48241-1.2891-0.62891-0.51431-0.14648-1.11-0.22069-1.7871-0.2207zm-296.9 0.11712-4.0625 2.1387 0.625 1.4453 3.0566-1.6602v9.3164h-3.2812v1.582h8.0176v-1.582h-2.8516v-11.24zm55.078 0-4.0625 2.1387 0.625 1.4453 3.0566-1.6602v9.3164h-3.2812v1.582h8.0176v-1.582h-2.8516v-11.24zm143.2 0-4.0625 2.1387 0.625 1.4453 3.0566-1.6602v9.3164h-3.2812v1.582h8.0176v-1.582h-2.8516v-11.24zm77.109 0-4.0625 2.1387 0.625 1.4453 3.0566-1.6602v9.3164h-3.2812v1.582h8.0176v-1.582h-2.8516v-11.24zm-245.76 0.05863v6.5234h2.4219c1.0677 1.3e-5 1.8854 0.18165 2.4551 0.54298 0.56965 0.36132 0.85545 0.93815 0.85546 1.7324-1.3e-5 0.41015-0.07813 0.78061-0.23438 1.1094-0.15626 0.32879-0.38086 0.60871-0.67382 0.83984-0.29298 0.23112-0.64779 0.4075-1.0644 0.53125-0.41666 0.12363-0.88541 0.18555-1.4062 0.18555-0.46224 0-0.92059-0.0196-1.373-0.0586-0.45248-0.039-0.85351-0.10088-1.2051-0.18554v1.543c0.16276 0.026 0.3457 0.0489 0.55078 0.0684 0.20508 0.0196 0.41601 0.0385 0.63086 0.0547 0.21484 0.0162 0.43034 0.029 0.64844 0.039 0.21809 0.01 0.42251 0.0136 0.61132 0.0136 0.7552-1e-5 1.4583-0.10412 2.1094-0.3125 0.65104-0.20833 1.2148-0.4987 1.6934-0.87305 0.4785-0.37435 0.85545-0.8229 1.1289-1.3437 0.27342-0.52082 0.41015-1.097 0.41016-1.7285-1.2e-5 -0.70312-0.13934-1.2865-0.41601-1.752-0.27671-0.46549-0.64129-0.83658-1.0938-1.1133-0.45249-0.27669-0.96745-0.47141-1.5469-0.58204s-1.1751-0.166-1.7871-0.16601h-1.1133v-3.584h5.2734v-1.4844zm58.975 0-5.4394 8.4473v1.4941h6.1426v2.8223h1.7383v-2.8223h2.1777v-1.4941h-2.1777v-8.4473zm7.1191 0v6.5234h2.4219c1.0677 1.3e-5 1.8854 0.18165 2.4551 0.54298 0.56965 0.36132 0.85545 0.93815 0.85547 1.7324-2e-5 0.41015-0.0781 0.78061-0.23438 1.1094-0.15626 0.32879-0.38086 0.60871-0.67382 0.83984-0.29298 0.23112-0.64779 0.4075-1.0644 0.53125-0.41667 0.12363-0.88542 0.18555-1.4062 0.18555-0.46224 0-0.92059-0.0196-1.373-0.0586-0.45248-0.039-0.85352-0.10088-1.2051-0.18554v1.543c0.16276 0.026 0.3457 0.0489 0.55078 0.0684 0.20507 0.0196 0.41601 0.0385 0.63086 0.0547 0.21484 0.0162 0.43034 0.029 0.64844 0.039 0.21808 0.01 0.42251 0.0136 0.61132 0.0136 0.7552-1e-5 1.4583-0.10412 2.1094-0.3125 0.65103-0.20833 1.2148-0.4987 1.6934-0.87305 0.4785-0.37435 0.85545-0.8229 1.1289-1.3437 0.27342-0.52084 0.41015-1.097 0.41016-1.7285-1e-5 -0.70312-0.13934-1.2865-0.41601-1.752-0.27671-0.46549-0.64129-0.83658-1.0938-1.1133-0.45249-0.27669-0.96745-0.47141-1.5469-0.58204-0.57942-0.11062-1.1751-0.166-1.7871-0.16601h-1.1133v-3.584h5.2734v-1.4844zm16.797 0c-0.86588 1.2e-5 -1.6276 0.0905-2.2852 0.26954-0.65757 0.17905-1.2298 0.4297-1.7148 0.75195-0.48503 0.32228-0.88933 0.70704-1.2148 1.1562-0.32553 0.44922-0.58594 0.94402-0.78125 1.4844-0.19531 0.54038-0.3353 1.1166-0.41993 1.7285-0.0846 0.61199-0.12695 1.2435-0.12695 1.8945 0 0.97005 0.0944 1.8099 0.2832 2.5195 0.1888 0.70964 0.46549 1.2982 0.83008 1.7637 0.36459 0.46551 0.81706 0.81057 1.3574 1.0352 0.54037 0.22467 1.1621 0.33592 1.8652 0.33593 0.67056-1e-5 1.2799-0.10812 1.8301-0.32617 0.55012-0.2181 1.0215-0.51759 1.4121-0.89844 0.39061-0.38086 0.69074-0.82942 0.90234-1.3437 0.21163-0.51432 0.31835-1.0644 0.31836-1.6504-1e-5 -0.5599-0.0814-1.0742-0.24414-1.543-0.16277-0.46875-0.40626-0.86979-0.72851-1.2051-0.32228-0.33529-0.72593-0.5983-1.2109-0.78711-0.48504-0.18882-1.0488-0.2832-1.6934-0.2832-0.62501 0-1.207 0.07425-1.7441 0.2207-0.53711 0.14649-1.0098 0.3392-1.4199 0.58008l0.039-0.40039c0.0521-0.57942 0.17903-1.1035 0.38086-1.5723 0.20182-0.46874 0.49152-0.86914 0.86914-1.2012 0.3776-0.33202 0.84635-0.58919 1.4062-0.77149 0.55988-0.18231 1.2207-0.27342 1.9824-0.27344h1.3672v-1.4844zm4.4141 0v1.582h6.8945l-5.5566 11.182h1.9434l5.3516-11.182v-1.582zm-94.98 1.2207c0.42317 0 0.80143 0.07162 1.1367 0.21484 0.33528 0.14324 0.62109 0.38672 0.85547 0.72851 0.23437 0.34181 0.41341 0.79429 0.53711 1.3574 0.1237 0.56316 0.18554 1.2637 0.18555 2.1035-0.17579 0.11725-0.37436 0.22791-0.5957 0.33204-0.22136 0.10412-0.45508 0.19531-0.69922 0.27344-0.24415 0.07813-0.4948 0.13992-0.75195 0.18555-0.25717 0.04563-0.50522 0.06837-0.74609 0.06837-0.42969 1.2e-5 -0.80079-0.05862-1.1133-0.17578-0.3125-0.11712-0.56902-0.28384-0.76758-0.50195-0.19857-0.21809-0.34505-0.48438-0.43945-0.79688s-0.14063-0.66731-0.14062-1.0645c-2e-6 -0.43619 0.0651-0.82355 0.19531-1.1621 0.1302-0.33854 0.30664-0.62239 0.53125-0.85352 0.2246-0.23111 0.49153-0.40684 0.80078-0.52734 0.30924-0.12038 0.64713-0.18164 1.0117-0.18164zm121.17 0c0.42316 0 0.80143 0.07162 1.1367 0.21484 0.33529 0.14324 0.62109 0.38672 0.85548 0.72851 0.23436 0.34181 0.41336 0.79429 0.53711 1.3574 0.12363 0.56316 0.18554 1.2637 0.18554 2.1035-0.17579 0.11725-0.37435 0.22791-0.5957 0.33204-0.22136 0.10412-0.45509 0.19531-0.69921 0.27344-0.24415 0.07813-0.4948 0.13992-0.75197 0.18555-0.25716 0.04563-0.50521 0.06837-0.74608 0.06837-0.4297 1.2e-5 -0.80079-0.05862-1.1133-0.17578-0.3125-0.11712-0.56901-0.28384-0.76758-0.50195-0.19857-0.21809-0.34507-0.48438-0.43945-0.79688-0.0944-0.3125-0.14063-0.66731-0.14062-1.0645-1e-5 -0.43619 0.0651-0.82355 0.19531-1.1621 0.1302-0.33854 0.30664-0.62239 0.53125-0.85352 0.2246-0.23111 0.49153-0.40684 0.80078-0.52734 0.30925-0.12038 0.64713-0.18164 1.0117-0.18164zm-10.82 0.0195c0.73566 1.3e-5 1.306 0.1426 1.7129 0.42579 0.4069 0.28321 0.61132 0.71355 0.61132 1.293 0 0.4948-0.17902 0.93035-0.5371 1.3047-0.35807 0.37435-0.90495 0.73308-1.6406 1.0781-0.42318-0.1888-0.78777-0.37434-1.0938-0.55664-0.30599-0.18229-0.56252-0.36784-0.76759-0.55664-0.20508-0.1888-0.3555-0.39062-0.45313-0.60548-0.0976-0.21484-0.14647-0.44921-0.14647-0.70312 0-0.55989 0.20246-0.97981 0.60937-1.2598 0.40689-0.27994 0.9759-0.41991 1.7051-0.41992zm-143.2 0.039c0.33202 1.3e-5 0.6315 0.05537 0.89844 0.16601 0.26692 0.11075 0.50455 0.26629 0.71289 0.46485 0.20832 0.19858 0.38736 0.4336 0.53711 0.70702 0.14973 0.27345 0.27343 0.57619 0.37109 0.90821l-5.4004 3.9941c-0.01953-0.1888-0.03191-0.38411-0.03516-0.58594-0.0033-0.20182-0.0039-0.40364-0.0039-0.60548-4e-6 -0.82681 0.06836-1.5534 0.20508-2.1816 0.13672-0.62825 0.33203-1.1556 0.58594-1.582 0.2539-0.42641 0.56054-0.74804 0.92188-0.9629 0.36132-0.21476 0.76432-0.32225 1.207-0.32226zm55.078 0c0.33202 1.3e-5 0.6315 0.05537 0.89844 0.16601 0.26691 0.11075 0.50455 0.26629 0.71289 0.46485 0.20832 0.19858 0.38736 0.4336 0.53711 0.70702 0.14973 0.27345 0.27346 0.57619 0.37109 0.90821l-5.4004 3.9941c-0.0195-0.1888-0.03137-0.38411-0.03512-0.58594-0.0037-0.20182-0.0037-0.40364-0.0037-0.60548 0-0.82681 0.06838-1.5534 0.20508-2.1816 0.13671-0.62825 0.33202-1.1556 0.58594-1.582 0.2539-0.42641 0.56055-0.74804 0.92188-0.9629 0.36132-0.21476 0.76432-0.32225 1.207-0.32226zm110.16 0c0.33202 1.3e-5 0.6315 0.05537 0.89844 0.16601 0.26691 0.11075 0.50455 0.26629 0.71288 0.46485 0.20833 0.19858 0.38737 0.4336 0.53712 0.70702 0.14972 0.27345 0.27346 0.57619 0.37108 0.90821l-5.4004 3.9941c-0.0195-0.1888-0.0314-0.38411-0.0351-0.58594-4e-3 -0.20182-4e-3 -0.40364-4e-3 -0.60548 0-0.82681 0.0684-1.5534 0.20508-2.1816 0.13671-0.62825 0.33202-1.1556 0.58593-1.582 0.2539-0.42641 0.56055-0.74804 0.92188-0.9629 0.36132-0.21476 0.76432-0.32225 1.207-0.32226zm55.078 0c0.33203 1.3e-5 0.6315 0.05537 0.89844 0.16601 0.26691 0.11075 0.50455 0.26629 0.71289 0.46485 0.20832 0.19858 0.38736 0.4336 0.53711 0.70702 0.14973 0.27345 0.27346 0.57619 0.37109 0.90821l-5.4004 3.9941c-0.0195-0.1888-0.0314-0.38411-0.0351-0.58594-4e-3 -0.20182-4e-3 -0.40364-4e-3 -0.60548 0-0.82681 0.0684-1.5534 0.20507-2.1816 0.13671-0.62825 0.33203-1.1556 0.58594-1.582 0.2539-0.42641 0.56055-0.74804 0.92187-0.9629 0.36133-0.21476 0.76433-0.32225 1.207-0.32226zm33.047 0c0.33202 1.3e-5 0.6315 0.05537 0.89844 0.16601 0.26691 0.11075 0.50455 0.26629 0.71288 0.46485 0.20833 0.19858 0.38737 0.4336 0.53712 0.70702 0.14972 0.27345 0.27346 0.57619 0.37108 0.90821l-5.4004 3.9941c-0.0195-0.1888-0.0314-0.38411-0.0351-0.58594-4e-3 -0.20182-4e-3 -0.40364-4e-3 -0.60548 0-0.82681 0.0684-1.5534 0.20508-2.1816 0.13671-0.62825 0.33202-1.1556 0.58593-1.582 0.2539-0.42641 0.56055-0.74804 0.92188-0.9629 0.36132-0.21476 0.76432-0.32225 1.207-0.32226zm11.016 0c0.33203 1.3e-5 0.6315 0.05537 0.89844 0.16601 0.26691 0.11075 0.50455 0.26629 0.71289 0.46485 0.20832 0.19858 0.38736 0.4336 0.53711 0.70702 0.14973 0.27345 0.27346 0.57619 0.37109 0.90821l-5.4004 3.9941c-0.0195-0.1888-0.0314-0.38411-0.0351-0.58594-4e-3 -0.20182-4e-3 -0.40364-4e-3 -0.60548 0-0.82681 0.0684-1.5534 0.20507-2.1816 0.13671-0.62825 0.33203-1.1556 0.58594-1.582 0.2539-0.42641 0.56055-0.74804 0.92187-0.9629 0.36133-0.21476 0.76433-0.32225 1.207-0.32226zm11.016 0c0.33202 1.3e-5 0.6315 0.05537 0.89844 0.16601 0.26691 0.11075 0.50455 0.26629 0.71288 0.46485 0.20833 0.19858 0.38737 0.4336 0.53712 0.70702 0.14972 0.27345 0.27346 0.57619 0.37108 0.90821l-5.4004 3.9941c-0.0195-0.1888-0.0314-0.38411-0.0351-0.58594-4e-3 -0.20182-4e-3 -0.40364-4e-3 -0.60548 0-0.82681 0.0684-1.5534 0.20508-2.1816 0.13671-0.62825 0.33202-1.1556 0.58593-1.582 0.2539-0.42641 0.56055-0.74804 0.92188-0.9629 0.36132-0.21476 0.76432-0.32225 1.207-0.32226zm-175.19 0.36132v6.8066h-4.4434zm-97.363 3.5059c0.01952 0.20834 0.03645 0.42254 0.05274 0.64062 0.01629 0.2181 0.02539 0.43685 0.02539 0.6582-8e-6 0.82684-0.06836 1.5554-0.20508 2.1836-0.13673 0.62825-0.33204 1.153-0.58594 1.5762-0.25391 0.42318-0.56251 0.74219-0.92383 0.95702-0.36134 0.21489-0.76238 0.32226-1.2051 0.32226-0.34506 0-0.65365-0.0559-0.92383-0.16991-0.27019-0.11388-0.51107-0.27344-0.72266-0.47852-0.21159-0.20508-0.39128-0.45181-0.54102-0.73828-0.14974-0.28646-0.27344-0.59896-0.37109-0.9375zm55.078 0c0.01962 0.20834 0.0365 0.42254 0.05275 0.64062 0.01563 0.2181 0.02538 0.43685 0.02538 0.6582 0 0.82684-0.06838 1.5554-0.20509 2.1836-0.13672 0.62825-0.33204 1.153-0.58594 1.5762-0.25391 0.42318-0.5625 0.74219-0.92382 0.95702-0.36134 0.21489-0.76238 0.32226-1.2051 0.32226-0.34506 0-0.65365-0.0559-0.92382-0.16991-0.27019-0.11388-0.51108-0.27344-0.72266-0.47852-0.21159-0.20508-0.39128-0.45181-0.54101-0.73828-0.14975-0.28646-0.27348-0.59896-0.3711-0.9375zm110.16 0c0.0196 0.20834 0.0365 0.42254 0.0528 0.64062 0.0156 0.2181 0.0254 0.43685 0.0254 0.6582 0 0.82684-0.0684 1.5554-0.20508 2.1836-0.13673 0.62825-0.33204 1.153-0.58594 1.5762-0.25391 0.42318-0.5625 0.74219-0.92383 0.95702-0.36133 0.21489-0.76237 0.32226-1.2051 0.32226-0.34506 0-0.65365-0.0559-0.92383-0.16991-0.27018-0.11388-0.51107-0.27344-0.72266-0.47852-0.21159-0.20508-0.39127-0.45181-0.54101-0.73828-0.14975-0.28646-0.27348-0.59896-0.3711-0.9375zm55.078 0c0.0196 0.20834 0.0365 0.42254 0.0527 0.64062 0.0156 0.2181 0.0254 0.43685 0.0254 0.6582 0 0.82684-0.0684 1.5554-0.20509 2.1836-0.13672 0.62825-0.33204 1.153-0.58594 1.5762-0.25391 0.42318-0.5625 0.74219-0.92382 0.95702-0.36134 0.21489-0.76238 0.32226-1.2051 0.32226-0.34506 0-0.65365-0.0559-0.92382-0.16991-0.27019-0.11388-0.51108-0.27344-0.72266-0.47852-0.21159-0.20508-0.39128-0.45181-0.54102-0.73828-0.14975-0.28646-0.27347-0.59896-0.3711-0.9375zm33.047 0c0.0195 0.20834 0.0365 0.42254 0.0528 0.64062 0.0156 0.2181 0.0254 0.43685 0.0254 0.6582 0 0.82684-0.0684 1.5554-0.20508 2.1836-0.13673 0.62825-0.33204 1.153-0.58594 1.5762-0.25391 0.42318-0.5625 0.74219-0.92383 0.95702-0.36133 0.21489-0.76237 0.32226-1.2051 0.32226-0.34506 0-0.65365-0.0559-0.92383-0.16991-0.27018-0.11388-0.51107-0.27344-0.72266-0.47852-0.21159-0.20508-0.39127-0.45181-0.54101-0.73828-0.14975-0.28646-0.27348-0.59896-0.3711-0.9375zm11.016 0c0.0195 0.20834 0.0365 0.42254 0.0528 0.64062 0.0156 0.2181 0.0254 0.43685 0.0254 0.6582 0 0.82684-0.0684 1.5554-0.20509 2.1836-0.13672 0.62825-0.33204 1.153-0.58594 1.5762-0.25391 0.42318-0.5625 0.74219-0.92382 0.95702-0.36134 0.21489-0.76238 0.32226-1.2051 0.32226-0.34506 0-0.65365-0.0559-0.92382-0.16991-0.27019-0.11388-0.51108-0.27344-0.72266-0.47852-0.21159-0.20508-0.39128-0.45181-0.54102-0.73828-0.14975-0.28646-0.27347-0.59896-0.3711-0.9375zm11.016 0c0.0195 0.20834 0.0365 0.42254 0.0528 0.64062 0.0156 0.2181 0.0254 0.43685 0.0254 0.6582 0 0.82684-0.0684 1.5554-0.20508 2.1836-0.13673 0.62825-0.33204 1.153-0.58594 1.5762-0.25391 0.42318-0.5625 0.74219-0.92383 0.95702-0.36133 0.21489-0.76237 0.32226-1.2051 0.32226-0.34506 0-0.65365-0.0559-0.92383-0.16991-0.27018-0.11388-0.51107-0.27344-0.72266-0.47852-0.21159-0.20508-0.39127-0.45181-0.54101-0.73828-0.14975-0.28646-0.27348-0.59896-0.3711-0.9375zm-156.8 1.1328c0.42969 1.3e-5 0.79817 0.06113 1.1074 0.18164 0.30923 0.1205 0.56576 0.28972 0.76758 0.50781 0.20183 0.2181 0.34898 0.48504 0.44335 0.80079 0.0944 0.31575 0.14259 0.66798 0.14259 1.0586 0 0.4297-0.0645 0.81315-0.19141 1.1484-0.12696 0.33529-0.30274 0.61915-0.52734 0.85352-0.22462 0.23438-0.49155 0.4127-0.80079 0.5332-0.30925 0.12038-0.64843 0.17969-1.0195 0.17969-0.44271 0-0.83334-0.0716-1.1719-0.21485-0.33853-0.14322-0.62436-0.38411-0.85547-0.72265-0.23113-0.33854-0.40436-0.78841-0.52149-1.3516-0.11712-0.56315-0.17579-1.2656-0.17577-2.1055 0.18228-0.11713 0.38411-0.2279 0.60546-0.33202 0.22135-0.10413 0.45312-0.19598 0.69727-0.27735 0.24413-0.08137 0.49413-0.14578 0.74804-0.1914 0.2539-0.04563 0.50456-0.06838 0.75196-0.06838zm21.631 0.6836c0.52083 0.23438 0.95052 0.46224 1.2891 0.68359 0.33853 0.22136 0.60872 0.44271 0.81055 0.66406 0.20181 0.22136 0.3418 0.44596 0.41992 0.67382 0.078 0.22788 0.11713 0.46225 0.11713 0.70312-2e-5 0.3125-0.0651 0.58205-0.19532 0.80665-0.13022 0.22461-0.3086 0.41015-0.5332 0.55664-0.22462 0.14649-0.48895 0.25455-0.79492 0.32618-0.306 0.0716-0.63153 0.10737-0.97656 0.10737-0.35809 0-0.69012-0.039-0.9961-0.11712-0.30599-0.07813-0.56967-0.19532-0.79102-0.35156-0.22136-0.15625-0.39648-0.3457-0.52343-0.57031-0.12693-0.2246-0.18947-0.48438-0.18945-0.77734-1.3e-4 -0.26041 0.039-0.50781 0.11712-0.74219 0.0781-0.23438 0.20898-0.45964 0.39453-0.67774s0.42968-0.43292 0.73242-0.64452c0.30273-0.21158 0.67643-0.42579 1.1191-0.64062z"/>
</svg>
