<svg version="1.1" viewBox="0 0 100 100" xmlns="http://www.w3.org/2000/svg">
		<rect x="56.305" y="102.27" width="100" height="100" rx="15.671" ry="15.671" transform="translate(-56.305 -102.27)" />
		<path d="m82.075 118.04 4.4674 26.487 15.279 7.567-15.233 7.6838-4.5336 26.468 8.6243-3.929 2.76-18.035 9.1405-4.5698 0.077 16.548 3.6871-2.0634 3.6866 2.0634 0.0765-16.548 9.1405 4.5698 2.7606 18.035 8.6238 3.929-4.5331-26.468-15.233-7.6838 15.279-7.567 4.4674-26.487-8.5468 3.9042-2.8339 18.03-9.1317 4.5372 5.2e-4 -16.592-3.7569 2.1296-3.7564-2.1296 5.2e-4 16.592-9.1317-4.5372-2.8339-18.03z" transform="translate(-56.305 -102.27)" fill="#fff"/>
</svg>
